<?xml version="1.0" standalone="no"?>
<!DOCTYPE svg PUBLIC "-//W3C//DTD SVG 1.1//EN" "http://www.w3.org/Graphics/SVG/1.1/DTD/svg11.dtd" >
<svg>
<metadata>
Created by FontForge 20090622 at Wed Mar  5 05:00:50 2014
 By ffonts
1.2, Copyright Copr. Castcraft Software, Inc. 1990-1991.
</metadata>
<defs>
<font id="OPTIAmway" horiz-adv-x="619" >
  <font-face 
    font-family="OPTIAmway"
    font-weight="400"
    font-stretch="normal"
    units-per-em="1000"
    panose-1="2 0 6 3 7 0 0 2 0 3"
    ascent="800"
    descent="-200"
    x-height="501"
    cap-height="736"
    bbox="-86 -261.008 1047 1084.67"
    underline-thickness="58"
    underline-position="-48"
    stemh="39"
    stemv="96"
    unicode-range="U+0020-U+FB02"
  />
<missing-glyph horiz-adv-x="280" 
 />
    <glyph glyph-name=".notdef" horiz-adv-x="280" 
 />
    <glyph glyph-name="space" unicode=" " horiz-adv-x="126" 
 />
    <glyph glyph-name="exclam" unicode="!" horiz-adv-x="211" 
d="M101 155h-8l-45 421c-3 30 -29 172 50 172c69 0 52 -138 48 -167zM98 -8c-28 0 -51 23 -51 50c0 28 23 51 51 51c27 0 51 -23 51 -51c0 -27 -24 -50 -51 -50z" />
    <glyph glyph-name="quotedbl" unicode="&#x22;" horiz-adv-x="315" 
d="M100 633l-18 -183h-18l-16 183c-1 18 -17 116 26 116c41 0 28 -98 26 -116zM245 633l-18 -183h-18l-16 183c-1 18 -17 116 27 116c40 0 27 -98 25 -116z" />
    <glyph glyph-name="numbersign" unicode="#" horiz-adv-x="854" 
d="M397 766h62l-89 -246h174l89 246h61l-89 -246h178l-14 -48h-181l-67 -180h183l-17 -45h-182l-89 -247h-62l89 247h-172l-89 -247h-64l88 247h-171l14 45h175l66 180h-174l18 48h173zM352 472l-66 -180h174l65 180h-173z" />
    <glyph glyph-name="dollar" unicode="$" horiz-adv-x="512" 
d="M217 739l-4 73h62l-4 -71c59 -11 77 -23 132 -53v-125c-24 70 -56 112 -135 130c0 0 -3 -104 -3 -171c0 -37 -1 -95 -1 -95l16 -10c93 -55 157 -86 169 -180v0c9 -64 -14 -129 -60 -174c-45 -44 -80 -51 -125 -63c0 -5 2 -70 7 -104h-62c4 38 3 101 3 101
c-64 7 -98 20 -172 76v128c32 -81 80 -152 173 -162c0 0 5 93 5 150c0 56 1 146 1 146c-109 72 -182 116 -172 232c5 70 44 123 119 155c23 10 43 15 51 17zM217 694c-16 3 -32 -3 -40 -6c-18 -9 -31 -19 -39 -30c-28 -32 -32 -68 -27 -100c10 -53 47 -76 106 -107
c0 0 2 55 2 91c0 60 -2 152 -2 152zM261 228l2 -186c0 -15 25 2 40 9c48 23 69 81 71 121c3 80 -34 105 -112 146z" />
    <glyph glyph-name="percent" unicode="%" horiz-adv-x="671" 
d="M299 380l201 367h61l-221 -372l-209 -380h-59zM379 342c13 10 29 20 49 25v0c45 14 93 3 129 -26c51 -44 64 -120 58 -178c-6 -46 -28 -116 -92 -149c-36 -19 -82 -22 -121 -2c-59 32 -80 88 -86 139c-5 46 4 141 63 191zM442 341c-15 -8 -28 -21 -35 -37
c-24 -44 -26 -185 -5 -229c12 -26 30 -41 50 -45c20 -3 45 4 59 19c40 39 34 185 31 202c-4 32 -14 71 -47 88c-19 10 -40 8 -53 2zM85 718c13 10 29 20 49 25v0c45 14 93 3 129 -26c51 -44 64 -120 58 -178c-6 -46 -28 -116 -92 -149c-36 -20 -83 -23 -121 -3
c-59 32 -80 89 -86 140c-5 46 3 141 63 191zM148 717c-15 -8 -28 -22 -35 -38c-24 -43 -26 -184 -5 -228c12 -26 30 -41 50 -45s45 4 59 19c40 39 34 184 31 201c-4 33 -14 71 -47 88c-19 11 -40 9 -53 3z" />
    <glyph glyph-name="ampersand" unicode="&#x26;" horiz-adv-x="660" 
d="M413 586c-7 -75 -58 -111 -141 -163l167 -221c31 67 63 160 -1 225h87c11 -88 -19 -179 -56 -262l41 -55v0c10 -16 22 -30 34 -46l11 -16v0c15 -17 33 -35 51 -48h-111v0c-27 28 -53 57 -76 87c-88 -83 -143 -112 -230 -95c-57 11 -115 43 -145 114
c-26 54 -19 131 17 189c28 50 63 72 117 102c-68 97 -116 149 -86 245c18 54 58 88 110 102c41 12 116 7 162 -33c45 -38 54 -81 49 -125zM256 447c60 45 76 83 83 130c4 38 0 86 -34 114c-24 20 -63 22 -85 15c-31 -9 -50 -34 -59 -62c-16 -59 45 -143 95 -197zM203 369
c-32 -22 -41 -31 -48 -42c-40 -55 -45 -125 -24 -179c19 -49 60 -86 103 -95c56 -12 95 4 159 71z" />
    <glyph glyph-name="quotesingle" unicode="'" horiz-adv-x="205" 
d="M68 574c-7 -3 -15 -6 -20 -2c0 8 1 4 17 15c9 6 12 9 19 16c8 10 18 32 13 43c-23 3 -46 3 -60 39c-5 15 -4 34 8 46c10 14 29 21 48 18c20 -3 39 -15 48 -38c10 -24 5 -67 -15 -93c-9 -13 -36 -34 -58 -44z" />
    <glyph glyph-name="parenleft" unicode="(" horiz-adv-x="300" 
d="M205 -177c-70 91 -106 153 -136 240c-82 234 -44 442 138 686h23l-29 -67c-75 -171 -92 -252 -88 -387v-23c0 -102 56 -334 116 -449h-24z" />
    <glyph glyph-name="parenright" unicode=")" horiz-adv-x="300" 
d="M210 63c-30 -87 -66 -149 -136 -240h-24c60 115 117 347 117 449v23c3 135 -14 216 -88 387l-30 67h23c182 -244 220 -452 138 -686z" />
    <glyph glyph-name="asterisk" unicode="*" horiz-adv-x="431" 
d="M213 641c-5 -16 -7 -30 -6 -66c32 22 44 31 61 52c22 25 38 48 60 48c12 -1 27 -8 34 -22c6 -12 6 -27 -4 -39c-12 -16 -36 -17 -72 -25c-25 -5 -33 -7 -74 -26c40 -23 51 -26 69 -30c34 -8 63 -8 75 -19c6 -7 11 -19 9 -34c-3 -11 -10 -24 -23 -29c-9 -3 -21 -4 -37 5
c-17 11 -30 36 -45 51c-2 3 -12 12 -28 25c-5 5 -22 15 -27 15c0 -35 1 -43 9 -72c7 -23 24 -59 20 -74c-4 -12 -12 -22 -27 -26c-13 -3 -25 -2 -36 5c-9 6 -14 18 -12 33c0 7 18 58 20 67c7 22 8 28 7 68c-25 -17 -38 -28 -61 -53c-21 -24 -35 -44 -59 -44
c-13 0 -27 8 -34 20c-5 12 -5 25 3 36c12 15 37 18 72 26c20 4 33 6 73 29c-43 20 -53 23 -72 27c-19 3 -59 8 -72 24c-5 6 -11 18 -6 31c3 11 11 23 24 27c10 3 22 1 39 -11c8 -6 37 -40 45 -50c4 -4 13 -11 23 -20c7 -3 18 -14 27 -14c0 32 0 44 -9 73
c-10 36 -23 54 -18 72c5 13 14 23 27 27c9 4 23 1 34 -7c8 -6 15 -19 14 -36c-2 -15 -17 -48 -23 -64z" />
    <glyph glyph-name="plus" unicode="+" horiz-adv-x="735" 
d="M332 338v287h51v-287h289v-49h-289v-289h-52v289h-289v0v49h290z" />
    <glyph glyph-name="comma" unicode="," horiz-adv-x="205" 
d="M62 -81c-8 -3 -15 -6 -21 -2c0 8 1 4 17 15c10 6 13 9 19 16c9 10 19 32 13 44c-22 2 -45 2 -59 38c-6 15 -4 34 7 46c11 14 30 21 49 18s38 -15 48 -38c9 -24 5 -67 -15 -93c-10 -13 -36 -34 -58 -44z" />
    <glyph glyph-name="hyphen" unicode="-" horiz-adv-x="368" 
d="M38 240v63h265v-63h-265z" />
    <glyph glyph-name="period" unicode="." horiz-adv-x="205" 
d="M91 -8c-27 0 -51 23 -51 50c0 28 24 51 51 51c28 0 51 -23 51 -51c0 -27 -23 -50 -51 -50z" />
    <glyph glyph-name="slash" unicode="/" horiz-adv-x="473" 
d="M218 400l131 349h61s-96 -218 -153 -359l-156 -404h-60s112 252 177 414z" />
    <glyph glyph-name="zero" unicode="0" 
d="M179 718c29 16 53 24 77 28c69 11 147 -6 215 -79c109 -117 115 -283 82 -419c-21 -89 -85 -210 -198 -250c-60 -21 -145 -15 -210 34c-122 92 -144 249 -137 359c6 82 40 250 171 327zM262 705c-61 -15 -97 -74 -119 -132c-44 -120 -54 -380 45 -498
c38 -45 83 -55 121 -47c72 14 107 80 127 142c35 109 47 382 -53 491c-34 36 -89 52 -121 44z" />
    <glyph glyph-name="one" unicode="1" 
d="M166 640l171 109v-675c0 -40 0 -43 33 -74h-163c35 33 35 35 35 74v476c0 26 3 72 -17 85c-11 7 -41 5 -59 5z" />
    <glyph glyph-name="two" unicode="2" 
d="M378 286l-163 -196h251c30 0 36 3 58 31v-121h-468l241 280c86 102 141 182 115 286c-12 43 -40 78 -86 96c-43 16 -98 16 -148 -18c-12 -8 -55 -44 -68 -57c21 68 68 125 130 150c50 20 121 19 176 -12c54 -31 85 -89 94 -139c18 -105 -34 -182 -132 -300z" />
    <glyph glyph-name="three" unicode="3" 
d="M415 501c-31 -41 -68 -56 -108 -73c96 -18 153 -50 181 -153c18 -66 7 -151 -69 -224c-62 -61 -162 -78 -229 -56c-23 7 -44 17 -58 27c-9 6 -19 14 -29 23c-6 6 -10 10 -14 16l-5 6c-2 4 -3 9 1 8c70 -46 145 -51 203 -26c59 25 91 74 101 128c7 41 1 106 -44 150
c-41 40 -117 58 -155 68l27 15c90 48 143 69 142 163c0 44 -15 88 -69 115c-53 24 -101 11 -155 -20c60 73 111 89 176 78c57 -9 99 -36 124 -100c19 -46 10 -104 -20 -145z" />
    <glyph glyph-name="four" unicode="4" 
d="M356 590l-222 -253h222v253zM356 74v189h-332l426 491v-417h89v-74h-89v-189c0 -40 0 -43 34 -74h-163c35 33 35 35 35 74z" />
    <glyph glyph-name="five" unicode="5" 
d="M431 736c22 0 29 2 54 16l-13 -94h-255l-34 -195c78 25 171 21 241 -44c75 -68 91 -158 76 -229c-18 -91 -72 -157 -171 -192c-53 -18 -141 -21 -202 31c-11 8 -22 19 -28 28c-6 8 -9 14 -11 18c-4 10 -1 11 2 9c67 -51 129 -60 191 -38v0c56 19 98 64 113 122
c15 53 12 127 -34 181c-44 50 -121 65 -172 60c-20 -2 -28 -5 -61 -16l63 343h241z" />
    <glyph glyph-name="six" unicode="6" 
d="M472 722c16 -10 29 -23 14 -19c-75 18 -148 21 -218 -43c-68 -61 -107 -177 -114 -242c83 70 169 80 239 58c73 -25 129 -85 147 -162c17 -66 2 -180 -65 -250c-71 -70 -162 -88 -235 -72c-86 19 -141 75 -174 168c-47 133 -27 340 82 474c76 95 152 124 247 113
c22 -3 35 -6 52 -12c13 -6 21 -11 25 -13zM248 434c-92 -35 -109 -125 -109 -195c0 -61 9 -141 84 -189c42 -26 95 -29 139 -6v0c66 32 83 101 87 150c5 57 4 165 -71 221c-39 30 -92 34 -130 19z" />
    <glyph glyph-name="seven" unicode="7" 
d="M87 623v113h423l-125 -344l-111 -329v0c-6 -23 -14 -44 -16 -63h-81l241 653h-225c-38 -1 -66 6 -106 -30z" />
    <glyph glyph-name="eight" unicode="8" 
d="M480 585c-4 -75 -36 -104 -122 -153c91 -55 150 -105 157 -207c3 -57 -16 -135 -84 -188v0c-61 -48 -140 -62 -213 -40c-69 21 -122 67 -146 141c-16 50 -15 122 28 176c32 41 68 61 114 81c-89 55 -120 109 -115 187c3 54 29 112 97 147c59 29 152 29 210 -8
c58 -39 77 -83 74 -136zM327 444c73 64 89 109 83 167c-6 42 -25 74 -65 92c-31 15 -83 11 -110 -7c-40 -26 -51 -65 -50 -99c2 -73 77 -116 142 -153zM238 377c-98 -73 -114 -135 -100 -217c11 -58 38 -101 99 -123c36 -15 96 -6 131 21c56 45 62 104 57 148
c-13 94 -100 134 -187 171z" />
    <glyph glyph-name="nine" unicode="9" 
d="M120 5c-6 3 -36 26 -29 28c75 -16 149 -23 221 39c70 62 109 183 117 241c-87 -70 -173 -81 -250 -53c-75 29 -128 97 -143 172c-12 61 -2 175 77 246c79 74 170 83 245 62c97 -28 147 -107 171 -198c30 -122 11 -336 -114 -465c-77 -79 -171 -105 -256 -84
c-13 2 -26 6 -39 12zM255 705c-52 -10 -82 -34 -106 -89c-27 -58 -28 -196 21 -261c37 -50 88 -68 134 -62c60 8 103 51 125 109c24 64 21 185 -30 247c-45 54 -98 64 -144 56z" />
    <glyph glyph-name="colon" unicode=":" horiz-adv-x="205" 
d="M91 -8c-27 0 -51 23 -51 50c0 28 24 51 51 51c28 0 51 -23 51 -51c0 -27 -23 -50 -51 -50zM91 407c-27 0 -51 23 -51 51c0 27 24 50 51 50c28 0 51 -23 51 -50c0 -28 -23 -51 -51 -51z" />
    <glyph glyph-name="semicolon" unicode=";" horiz-adv-x="205" 
d="M99 407c-28 0 -51 23 -51 51c0 27 23 50 51 50c27 0 51 -23 51 -50c0 -28 -24 -51 -51 -51zM77 -81c-7 -3 -14 -6 -20 -2c0 8 1 4 17 15c10 6 13 9 19 16c9 10 18 32 13 44c-22 2 -45 2 -59 38c-6 15 -5 34 7 46c11 14 30 21 49 18s38 -15 48 -38c9 -24 5 -67 -15 -93
c-10 -13 -36 -34 -59 -44z" />
    <glyph glyph-name="less" unicode="&#x3c;" horiz-adv-x="769" 
d="M32 337l664 267v-50l-595 -241l595 -234v-49l-664 260v47z" />
    <glyph glyph-name="equal" unicode="=" horiz-adv-x="735" 
d="M29 380v48h630v-48h-630zM29 194v48h630v-48h-630z" />
    <glyph glyph-name="greater" unicode="&#x3e;" horiz-adv-x="769" 
d="M27 604l664 -267v-47l-664 -260v49l595 234l-595 241v50z" />
    <glyph glyph-name="question" unicode="?" horiz-adv-x="420" 
d="M131 137l-1 6v29c-4 93 -13 108 26 176l36 63c34 59 102 190 62 257c-18 31 -47 43 -79 43c-37 0 -77 -24 -104 -68c-13 -21 -25 -55 -31 -71l-5 113c76 60 139 77 209 56c51 -15 80 -36 99 -90c31 -93 -19 -173 -86 -273l-69 -101c-34 -50 -39 -66 -57 -140zM137 -8
c-28 0 -51 23 -51 50c0 28 23 51 51 51s51 -23 51 -51c0 -27 -23 -50 -51 -50z" />
    <glyph glyph-name="at" unicode="@" horiz-adv-x="987" 
d="M661 83c-39 6 -63 19 -91 70c-66 -62 -122 -84 -191 -66c-52 14 -84 50 -102 106c-23 72 1 191 67 270c57 70 123 99 189 90c55 -7 81 -28 104 -90l23 79v0h61l-63 -215s-43 -134 -9 -170c19 -21 44 -24 74 -19c73 13 116 71 144 142c31 80 34 218 -34 312
c-81 113 -244 144 -344 138c-121 -7 -278 -82 -359 -229c-61 -110 -68 -297 -3 -416c73 -133 218 -188 334 -195c121 -8 243 23 387 110l20 -23c-161 -127 -404 -156 -558 -98c-159 59 -243 160 -274 313c-29 138 -6 309 127 436c145 137 333 164 478 127
c131 -33 226 -98 271 -239c30 -93 20 -250 -67 -351c-58 -68 -122 -92 -184 -82zM476 508c-26 -10 -52 -31 -73 -56c-52 -65 -90 -178 -70 -249c10 -36 30 -60 64 -72c31 -11 71 -8 101 13c72 52 112 206 111 260c0 32 -10 74 -43 96c-29 19 -67 17 -90 8z" />
    <glyph glyph-name="A" unicode="A" horiz-adv-x="702" 
d="M33 62l298 689l291 -683c16 -36 26 -43 57 -68h-179c28 24 34 35 23 70c-4 14 -27 69 -30 75l-38 85h-294l-46 -104l-27 -64c-12 -32 -6 -37 19 -62h-118v0c18 18 33 38 44 62zM307 587l-128 -309h255z" />
    <glyph glyph-name="B" unicode="B" horiz-adv-x="628" 
d="M177 381v-328c59 -12 98 -14 134 -8c66 10 112 26 141 93c23 47 23 125 -8 173c-50 79 -141 70 -227 70h-40zM177 703v-284c51 -3 72 -3 98 0c46 7 98 31 119 78c15 34 17 94 -10 139c-43 73 -181 67 -207 67zM53 736h143c110 0 219 5 279 -83v0c25 -39 30 -89 11 -133
c-24 -57 -72 -84 -134 -108c86 -16 159 -32 200 -129c23 -55 24 -120 -15 -178c-69 -102 -183 -105 -269 -105h-215c27 25 30 35 30 68v600c0 33 -2 45 -30 68z" />
    <glyph glyph-name="C" unicode="C" horiz-adv-x="789" 
d="M221 691c148 91 327 68 487 -11l7 -163c-38 111 -74 155 -190 185c-76 20 -197 7 -269 -56c-108 -94 -122 -228 -111 -326c13 -98 47 -197 168 -258c76 -40 210 -37 279 2c68 37 105 93 133 162l-7 -159c-159 -87 -339 -115 -493 -23c-133 78 -193 197 -193 310
c-1 117 43 249 189 337z" />
    <glyph glyph-name="D" unicode="D" horiz-adv-x="805" 
d="M270 0h-216c25 29 28 33 28 63v610c0 30 -3 34 -28 63h257c131 0 293 -16 386 -178c66 -112 65 -241 0 -354c-113 -198 -263 -204 -427 -204zM176 696v-638c83 -24 192 -20 247 -6c87 21 159 84 191 169v0c32 89 37 262 -33 361c-88 124 -253 115 -336 114h-69z" />
    <glyph glyph-name="E" unicode="E" horiz-adv-x="569" 
d="M497 0h-442c25 29 28 33 28 63v610c0 30 -3 34 -28 63h412v-77c-23 23 -91 40 -155 40c-60 0 -125 -2 -135 -2v0v-269h163c29 0 59 17 68 30v-96c-26 24 -41 28 -68 28h-163v-339c58 -14 199 -12 218 -10c58 5 82 8 119 69z" />
    <glyph glyph-name="F" unicode="F" horiz-adv-x="538" 
d="M83 63v610c0 30 -3 34 -28 63h412v-77c-23 23 -91 40 -155 40c-60 0 -125 -2 -135 -2v0v-269h163c29 0 59 17 68 30v-96c-26 24 -41 28 -68 28h-163v-328c0 -29 3 -32 28 -62h-150c25 29 28 33 28 63z" />
    <glyph glyph-name="G" unicode="G" horiz-adv-x="824" 
d="M652 96v155c0 29 -3 34 -28 62h150c-25 -30 -28 -33 -28 -61v-127c1 -32 2 -36 11 -49c-155 -91 -363 -128 -525 -37c-131 75 -194 187 -197 311c-4 117 51 249 186 335c154 97 328 74 479 2l13 -152c-71 123 -126 162 -248 173c-82 7 -172 -8 -246 -100
c-79 -93 -86 -258 -61 -352c31 -111 86 -175 198 -214c69 -24 211 -12 276 32c16 12 16 14 20 22z" />
    <glyph glyph-name="H" unicode="H" horiz-adv-x="797" 
d="M174 384v-322c0 -29 3 -32 28 -62h-150c24 29 28 33 28 63v610c0 30 -4 34 -28 63h150c-25 -30 -28 -33 -28 -62v-246h417v245c0 30 -3 34 -27 63h149c-24 -30 -27 -33 -27 -62v-612c0 -29 3 -32 27 -62h-149c24 29 27 33 27 63v321h-417z" />
    <glyph glyph-name="I" unicode="I" horiz-adv-x="278" 
d="M75 63v610c0 30 -3 34 -27 63h149c-24 -30 -27 -33 -27 -62v-612c0 -29 3 -32 27 -62h-149c24 29 27 33 27 63z" />
    <glyph glyph-name="J" unicode="J" horiz-adv-x="276" 
d="M81 73v600c0 30 -4 34 -28 63h150c-25 -30 -28 -33 -28 -62v-504c0 -188 -43 -332 -245 -380c139 93 151 176 151 283z" />
    <glyph glyph-name="K" unicode="K" horiz-adv-x="709" 
d="M480 684c21 25 17 27 5 52h145c-29 -14 -50 -27 -85 -58l-281 -265l321 -362c21 -23 38 -35 60 -51h-183c14 24 21 25 4 52c-6 9 -37 42 -47 53l-245 281l255 249c2 2 48 47 51 49zM172 674v-612c0 -29 2 -33 28 -62h-150c24 29 27 33 27 63v610c0 30 -3 34 -27 63h150
c-25 -30 -28 -33 -28 -62z" />
    <glyph glyph-name="L" unicode="L" horiz-adv-x="563" 
d="M485 0h-429c25 29 28 33 28 63v610c0 30 -3 34 -28 63h150c-24 -30 -28 -33 -28 -62v-629h153c62 0 127 -7 173 66z" />
    <glyph glyph-name="M" unicode="M" horiz-adv-x="898" 
d="M54 736h129l248 -594l247 594h135c-24 -30 -27 -33 -27 -62v-612c0 -29 3 -32 27 -62h-150c25 29 28 33 28 63v572l-278 -651l-283 640v-551c0 -33 3 -42 30 -73h-109c31 33 31 41 31 72v601c0 30 -3 34 -28 63z" />
    <glyph glyph-name="N" unicode="N" horiz-adv-x="758" 
d="M44 736h122l443 -543v470c0 31 0 40 -30 73h109c-28 -31 -31 -41 -31 -74v-676l-535 649v-562c0 -33 3 -42 31 -73h-109c30 33 30 41 30 72v591c0 31 0 40 -30 73z" />
    <glyph glyph-name="O" unicode="O" horiz-adv-x="880" 
d="M245 708c40 19 82 33 125 38c115 14 258 -19 361 -139c91 -106 99 -233 70 -334c-37 -128 -131 -226 -277 -271c-109 -34 -251 -14 -364 79c-120 99 -148 210 -136 327c14 124 81 229 221 300v0zM369 703c-97 -15 -173 -72 -215 -183c-41 -105 -31 -279 53 -384
c79 -98 171 -118 255 -104c114 17 171 66 216 181s41 281 -48 392c-75 91 -188 109 -261 98z" />
    <glyph glyph-name="P" unicode="P" horiz-adv-x="585" 
d="M51 736h175c88 0 219 -4 274 -112c33 -65 19 -152 -18 -203c-80 -111 -219 -110 -309 -95v-264c0 -29 3 -32 28 -62h-150c24 29 28 33 28 63v610c0 30 -4 34 -28 63zM173 697v-331c52 -9 93 -9 131 3c54 18 93 57 109 109c13 45 12 119 -22 162c-54 70 -172 59 -218 57z
" />
    <glyph glyph-name="Q" unicode="Q" horiz-adv-x="880" 
d="M377 703c-98 -15 -173 -72 -216 -183c-41 -105 -30 -279 53 -384c79 -98 171 -118 255 -104c115 17 171 66 217 181c44 115 40 281 -49 392c-74 91 -188 109 -260 98zM408 -15l-1 1c-81 0 -167 34 -239 95c-120 99 -149 210 -136 327c14 124 81 229 221 300
c39 19 81 33 125 38c115 14 258 -19 361 -139c90 -106 99 -233 70 -334c-37 -128 -132 -226 -277 -271c-12 -5 -24 -8 -36 -12l74 -47c78 -52 160 -94 245 -131l17 -7c23 -9 46 -16 69 -22c-100 -26 -240 -2 -342 67c-31 22 -54 39 -90 73c-22 20 -31 28 -42 40
c-9 9 -11 10 -19 22z" />
    <glyph glyph-name="R" unicode="R" horiz-adv-x="685" 
d="M83 63v610c0 30 -3 34 -28 63h147c85 0 218 3 282 -101c29 -47 29 -107 1 -160c-29 -56 -77 -84 -133 -101c41 -28 51 -45 94 -104l123 -187c37 -56 39 -55 88 -83h-29c-123 0 -109 -13 -184 107l-87 139c-72 115 -56 102 -180 100v-284c0 -29 3 -32 28 -62h-150
c25 29 28 33 28 63zM177 697v-310c34 -3 47 -5 79 -2c59 7 107 27 138 90c22 45 21 113 -7 158c-47 75 -180 64 -210 64z" />
    <glyph glyph-name="S" unicode="S" horiz-adv-x="532" 
d="M135 719c83 49 208 38 296 -25l-5 -124c-30 75 -56 117 -135 135c-38 9 -92 7 -129 -26c-31 -28 -41 -73 -38 -103c8 -62 64 -97 131 -134l55 -32c111 -61 161 -97 161 -205c1 -72 -28 -140 -113 -188c-76 -44 -190 -40 -277 11c-12 6 -22 12 -56 42l6 135
c26 -84 71 -146 156 -169c42 -13 105 -7 147 29c42 35 52 77 48 122c-7 72 -58 98 -130 139l-51 29c-108 60 -157 94 -159 203c0 61 19 117 93 161z" />
    <glyph glyph-name="T" unicode="T" horiz-adv-x="581" 
d="M227 63v632h-78c-52 0 -114 6 -155 -44v85h272h289v-85c-41 50 -103 44 -155 44h-78v-633c0 -29 3 -32 27 -62h-149c24 29 27 33 27 63z" />
    <glyph glyph-name="U" unicode="U" horiz-adv-x="712" 
d="M537 736h103c-24 -30 -27 -33 -27 -62v-404c0 -77 -3 -186 -101 -245c-92 -53 -246 -50 -333 -1c-111 64 -107 158 -107 242v407c0 30 -3 34 -27 63h149c-24 -30 -27 -33 -27 -62v-408c0 -78 -8 -155 85 -211c56 -34 178 -28 232 2c87 48 81 147 81 204v412
c0 30 -3 34 -28 63z" />
    <glyph glyph-name="V" unicode="V" horiz-adv-x="667" 
d="M-7 736h162c-35 -44 -19 -64 -3 -106l187 -469l191 474c18 48 31 59 -3 101h117c-19 -22 -22 -26 -40 -61l-294 -690l-270 684c-9 25 -17 36 -47 67z" />
    <glyph glyph-name="W" unicode="W" horiz-adv-x="959" 
d="M437 630l45 -112l47 117c18 48 30 59 -4 101h118c-19 -22 -22 -26 -40 -61l-95 -223l116 -291l191 474c18 48 31 59 -3 101h118c-19 -22 -22 -26 -40 -61l-294 -690l-138 349l-149 -349l-270 684c-9 25 -17 36 -47 67h162c-35 -44 -19 -64 -3 -106l187 -469l95 236
l-107 272c-10 25 -17 36 -48 67h163c-35 -44 -20 -64 -4 -106z" />
    <glyph glyph-name="X" unicode="X" horiz-adv-x="700" 
d="M109 658c-25 38 -38 50 -71 78h180c-25 -28 -29 -31 -14 -63c3 -5 36 -57 40 -64l99 -157l105 158l41 63c15 30 11 34 -12 63h129c-24 -22 -39 -34 -64 -68l-170 -256l226 -355c16 -22 25 -33 55 -57h-173c18 24 22 34 10 57c-2 5 -32 50 -37 57l-137 214l-139 -212
c-29 -45 -58 -69 -28 -116h-127c31 25 43 33 70 72l196 295z" />
    <glyph glyph-name="Y" unicode="Y" horiz-adv-x="597" 
d="M245 63v311l-50 81l-139 219c-21 34 -36 44 -61 62h179c-28 -25 -31 -29 -17 -58c1 -3 17 -28 38 -61l126 -194l103 197c15 32 25 46 31 60c15 32 7 38 -17 56h133c-33 -25 -46 -37 -63 -66l-123 -215l-45 -80v-313c0 -31 3 -32 27 -62h-149c24 29 27 33 27 63z" />
    <glyph glyph-name="Z" unicode="Z" horiz-adv-x="679" 
d="M77 736h525l-415 -684c33 -5 66 -8 100 -10v0h111c36 0 80 4 96 6c40 6 51 11 89 58l-6 -106h-526l424 702h-237c-71 0 -101 7 -161 -63v97z" />
    <glyph glyph-name="bracketleft" unicode="[" horiz-adv-x="261" 
d="M110 634v-693c0 -32 0 -45 10 -57c15 -17 42 -15 70 -15v-30h-153v897h153v-31c-28 0 -55 2 -70 -15c-10 -12 -10 -24 -10 -56z" />
    <glyph glyph-name="backslash" unicode="\" horiz-adv-x="411" 
d="M304 -29l-263 790h41l265 -790h-43z" />
    <glyph glyph-name="bracketright" unicode="]" horiz-adv-x="261" 
d="M120 -59v693c0 32 0 44 -10 56c-14 17 -42 15 -70 15v31h153v-897h-153v30c28 0 56 -2 70 15c10 12 10 25 10 57z" />
    <glyph glyph-name="asciicircum" unicode="^" horiz-adv-x="416" 
d="M166 740h57l126 -174h-34l-121 109l-121 -109h-34z" />
    <glyph glyph-name="underscore" unicode="_" horiz-adv-x="653" 
d="M49 -149v43h544v-43h-544v0z" />
    <glyph glyph-name="grave" unicode="`" horiz-adv-x="333" 
d="M177 660l94 -94h-30l-105 61c-64 38 -99 53 -95 83c1 13 12 27 26 31c25 10 51 -20 110 -81z" />
    <glyph glyph-name="a" unicode="a" horiz-adv-x="496" 
d="M402 74c1 -35 -4 -30 31 -54c-18 -7 -67 -33 -86 -21c-16 11 -21 29 -26 57c-77 -52 -154 -94 -228 -49c-52 33 -70 93 -63 139c14 98 71 107 165 135l36 10c10 2 34 8 55 16c20 7 19 6 38 15c0 84 4 120 -26 142c-25 19 -92 22 -127 3c-45 -23 -71 -69 -92 -104v93
c81 61 177 77 259 37c76 -40 64 -101 64 -166v-253zM325 283l-49 -13c-69 -21 -151 -32 -162 -114c-5 -36 5 -82 43 -106c43 -27 121 7 168 39v194z" />
    <glyph glyph-name="b" unicode="b" horiz-adv-x="552" 
d="M38 727l106 22v-304c76 62 136 87 214 58c86 -32 124 -116 136 -193c13 -88 -6 -205 -103 -279c-81 -62 -185 -48 -269 -10v0c-20 9 -40 19 -59 30v611c0 31 3 35 -25 65zM144 88c28 -46 63 -64 104 -66c45 -2 85 10 118 53c48 64 52 219 35 270c-20 63 -53 96 -108 111
c-51 15 -92 3 -149 -44v-324z" />
    <glyph glyph-name="c" unicode="c" horiz-adv-x="478" 
d="M206 510c53 12 132 1 196 -42v-110c-45 78 -74 123 -146 124c-45 1 -86 -23 -117 -75c-37 -62 -40 -198 -4 -264c31 -58 85 -98 139 -101c50 -2 101 20 154 65c-32 -79 -76 -106 -143 -117c-63 -9 -142 8 -201 77c-66 77 -74 195 -50 274c27 84 86 147 172 169z" />
    <glyph glyph-name="d" unicode="d" horiz-adv-x="547" 
d="M346 720l103 29v-680c0 -40 7 -45 22 -56l-95 -24v65c-66 -59 -154 -77 -213 -57c-82 27 -117 97 -133 174c-16 78 -3 213 84 290c61 55 135 66 213 42c8 -2 47 -17 47 -17v118v61c0 37 -9 45 -28 55zM338 460c-35 28 -171 36 -218 -93c-14 -36 -19 -73 -18 -120
c2 -71 18 -162 106 -205c47 -21 112 -6 164 37v256c0 46 5 93 -34 125z" />
    <glyph glyph-name="e" unicode="e" horiz-adv-x="506" 
d="M368 477c64 -50 78 -113 80 -177h-342c-3 -64 12 -169 85 -223c46 -32 104 -36 152 -19c34 13 61 34 103 81c-18 -74 -61 -120 -132 -140c-65 -19 -140 -17 -205 42c-79 70 -96 206 -84 277c16 80 69 153 154 185c51 19 129 20 189 -26zM361 335c0 49 -12 93 -44 124
c-30 28 -78 31 -107 23c-71 -22 -94 -87 -100 -147h251z" />
    <glyph glyph-name="f" unicode="f" horiz-adv-x="244" 
d="M141 466v-403c0 -22 1 -33 19 -63h-119c18 30 20 40 20 62v404h-56v35h27h29v27c0 55 -9 160 75 206c42 23 100 22 157 -12v-77c-22 35 -42 65 -81 70c-18 4 -35 -1 -49 -12c-27 -26 -23 -65 -23 -129v-73h150v-35h-149z" />
    <glyph glyph-name="g" unicode="g" horiz-adv-x="525" 
d="M320 501h161v-35h-106c63 -79 77 -148 45 -220c-33 -74 -102 -113 -174 -116c-21 -2 -77 14 -105 -23c-9 -11 -11 -26 -5 -37c17 -32 101 -28 111 -28h48c36 -1 126 3 163 -56c17 -27 14 -77 -3 -111c-37 -79 -143 -124 -209 -133c-58 -7 -157 -1 -206 59
c-23 29 -26 72 -18 99c13 37 47 59 92 84c-23 11 -43 22 -48 51c-2 20 4 44 23 63c19 20 41 32 67 44c-81 52 -112 106 -110 180c1 53 31 125 98 164c41 25 78 32 121 28c25 -3 30 -7 55 -13zM220 484c-63 -12 -83 -66 -92 -118c-4 -33 -6 -140 44 -183
c28 -24 67 -26 93 -18c47 14 69 46 81 90c13 49 9 154 -33 198c-30 32 -65 36 -93 31zM145 -20c-20 -4 -48 -29 -61 -53c-13 -26 -10 -46 5 -68c41 -63 116 -73 169 -71c51 1 120 22 149 74c13 24 14 51 3 71c-28 48 -118 43 -134 43h-58c-15 0 -23 0 -38 1z" />
    <glyph glyph-name="h" unicode="h" horiz-adv-x="552" 
d="M144 749v-317c70 55 162 110 250 68c79 -38 75 -125 75 -184v-253c0 -22 1 -33 19 -63h-119c18 30 20 40 20 62v241c0 58 6 120 -51 149c-32 18 -90 19 -135 -8c-28 -17 -41 -29 -59 -44v-92v-245c0 -22 1 -33 19 -63h-118c18 30 19 40 19 62v605c0 34 0 36 -26 57z" />
    <glyph glyph-name="i" unicode="i" horiz-adv-x="229" 
d="M99 654c-27 0 -48 21 -48 48c0 26 21 47 48 47c26 0 47 -21 47 -47c0 -27 -21 -48 -47 -48zM160 0h-119c18 30 20 40 20 62v370c0 34 0 36 -26 57l106 26v-452c0 -22 1 -33 19 -63z" />
    <glyph glyph-name="j" unicode="j" horiz-adv-x="234" 
d="M101 654c-27 0 -48 21 -48 48c0 26 21 47 48 47c26 0 48 -21 48 -47c0 -27 -22 -48 -48 -48zM63 -98v530c0 34 0 36 -26 57l106 26v-582c0 -54 2 -130 -71 -175c-45 -28 -100 -24 -158 5v83c16 -30 36 -65 69 -71c16 -2 35 0 52 14c30 25 28 81 28 113z" />
    <glyph glyph-name="k" unicode="k" horiz-adv-x="512" 
d="M276 110l-134 158l123 106c22 19 57 52 66 61c16 17 26 28 26 34c4 13 1 18 -16 32h136c-58 -33 -64 -36 -133 -102l-118 -110l194 -240c21 -25 34 -34 52 -49h-147c10 12 13 17 13 29c0 8 -11 18 -18 27zM142 749v-686c0 -22 1 -33 19 -63h-119c19 30 20 40 20 62v605
c0 34 0 36 -26 57z" />
    <glyph glyph-name="l" unicode="l" horiz-adv-x="229" 
d="M161 0h-119c19 30 20 40 20 62v605c0 34 0 36 -26 57l106 25v-686c0 -22 1 -33 19 -63z" />
    <glyph glyph-name="m" unicode="m" horiz-adv-x="864" 
d="M142 515v-76c76 62 156 98 236 61c39 -18 56 -35 77 -79c82 87 177 108 239 85c78 -27 76 -128 76 -188v-255c0 -22 1 -33 19 -63h-119c18 30 19 40 19 62v249c0 44 6 109 -41 137c-28 16 -79 24 -127 0c-15 -7 -34 -19 -66 -54v-331c0 -22 1 -33 20 -63h-119
c18 30 19 40 19 62v239c0 68 7 124 -62 155c-42 21 -111 8 -171 -46v-347c0 -22 1 -33 19 -63h-119c19 30 20 40 20 62v370c0 34 0 36 -26 57z" />
    <glyph glyph-name="n" unicode="n" horiz-adv-x="557" 
d="M143 515v-78c80 66 152 99 236 63c88 -38 83 -130 83 -202v-235c0 -22 1 -33 19 -63h-119c18 30 19 40 19 62v233c0 65 5 117 -48 153c-27 19 -80 22 -118 5c-24 -10 -42 -25 -72 -54v-336c0 -22 1 -33 19 -63h-118c18 30 19 40 19 62v370c0 34 0 36 -26 57z" />
    <glyph glyph-name="o" unicode="o" horiz-adv-x="538" 
d="M143 482c20 14 45 23 72 29c63 12 132 -3 196 -67c72 -71 84 -170 69 -247c-16 -78 -67 -159 -154 -194v0c-64 -26 -136 -18 -192 20c-82 56 -113 156 -112 233c0 81 40 174 121 226zM203 470c-73 -40 -89 -158 -92 -207c-2 -49 8 -175 81 -221c37 -23 82 -21 115 -4
c75 41 88 177 89 210c2 38 -11 172 -82 217c-33 20 -82 21 -111 5z" />
    <glyph glyph-name="p" unicode="p" horiz-adv-x="545" 
d="M141 515v-74c58 58 122 90 198 66c79 -25 123 -93 141 -172c17 -74 3 -211 -78 -288c-57 -55 -154 -69 -214 -52c-6 2 -28 6 -47 15v-196c0 -21 1 -33 19 -62h-119c18 29 20 40 20 61v619c0 34 0 36 -26 57zM141 410v-224c0 -78 -6 -118 46 -152c35 -21 93 -16 124 3
c89 53 93 173 91 218c-3 63 -16 156 -96 195c-62 30 -99 9 -165 -40z" />
    <glyph glyph-name="q" unicode="q" horiz-adv-x="551" 
d="M376 -187v236c-64 -48 -140 -73 -206 -55c-83 22 -124 91 -141 171c-18 84 -10 202 80 284c65 61 154 79 221 58c15 -5 33 -12 46 -19l80 17v-691c0 -21 2 -33 20 -62h-119c18 29 19 40 19 61zM221 472c-22 -9 -44 -26 -61 -47c-54 -66 -57 -204 -41 -260
c15 -57 47 -106 102 -126c41 -15 90 -7 129 19c17 12 22 18 26 24v29v58v169c0 60 5 98 -39 129c-32 22 -83 21 -116 5z" />
    <glyph glyph-name="r" unicode="r" horiz-adv-x="327" 
d="M141 382v-319c0 -22 1 -33 19 -63h-119c18 30 20 40 20 62v370c0 34 0 36 -26 57l106 26v-92l2 2c13 12 45 48 78 72c15 10 25 18 39 18c21 0 31 -2 41 -12v-74c-37 26 -80 30 -113 2c-23 -19 -35 -34 -45 -46z" />
    <glyph glyph-name="s" unicode="s" horiz-adv-x="389" 
d="M105 499c54 26 131 23 200 -24v-102c-27 57 -35 97 -99 110c-23 4 -61 3 -83 -18c-18 -17 -26 -36 -23 -58c4 -45 42 -67 92 -99l19 -12c79 -48 129 -85 127 -164c-1 -44 -22 -90 -77 -119c-75 -42 -163 -26 -238 24v129c22 -56 48 -122 115 -139c25 -7 63 -4 91 20
c27 22 32 50 30 79c-4 46 -41 67 -91 99l-23 15c-79 52 -122 86 -117 154c2 43 23 78 77 105z" />
    <glyph glyph-name="t" unicode="t" horiz-adv-x="285" 
d="M22 467l117 138v-104h139v-34h-139v-294c0 -66 -3 -100 39 -126c37 -24 73 -15 111 3c-28 -44 -48 -55 -86 -61c-34 -4 -68 1 -97 26c-51 46 -48 100 -48 169v283h-36z" />
    <glyph glyph-name="u" unicode="u" horiz-adv-x="552" 
d="M462 515v-444c0 -33 4 -39 31 -57l-80 -26c-23 17 -34 28 -34 82c-74 -75 -145 -99 -221 -69c-101 40 -96 112 -96 205v226c0 34 0 36 -26 57l106 26v-298c0 -62 -6 -116 53 -159c28 -19 74 -21 111 -6c35 14 50 29 75 54v326c0 34 0 36 -25 57z" />
    <glyph glyph-name="v" unicode="v" horiz-adv-x="472" 
d="M-11 501h134c-37 -31 -17 -64 0 -110l99 -267l132 310c11 27 22 49 -8 67h100c-16 -9 -27 -24 -40 -56v0l-211 -458l-174 459c-7 20 -14 33 -32 55z" />
    <glyph glyph-name="w" unicode="w" horiz-adv-x="755" 
d="M-11 501h125c-24 -37 -15 -53 3 -106l88 -257l91 204l35 75c-9 31 -14 61 -37 84h123c-26 -34 -13 -65 3 -110l93 -271l106 263c16 38 34 79 7 118h101v0c-17 -16 -31 -36 -41 -57l-197 -457l-141 380l-162 -380l-169 465v0c-7 20 -13 31 -28 49z" />
    <glyph glyph-name="x" unicode="x" horiz-adv-x="573" 
d="M47 501h132c-20 -22 -18 -32 5 -66c11 -16 90 -124 90 -124s84 117 88 124c21 32 24 41 2 66h108c-23 -18 -33 -25 -48 -47l-130 -171l119 -176c43 -65 55 -82 98 -107h-162c26 33 20 39 1 71c-16 26 -102 146 -102 146s-108 -145 -112 -151c-25 -37 -27 -46 -4 -66h-110
c25 20 44 36 69 68l135 180l-142 207c-12 17 -16 24 -37 46z" />
    <glyph glyph-name="y" unicode="y" horiz-adv-x="469" 
d="M-1 501h127c-20 -21 -23 -30 -8 -72l109 -304l116 275c27 65 23 78 3 101h106c-26 -16 -35 -33 -48 -62l-301 -687h-76c42 39 57 62 79 110l78 169l-29 83l-124 337c-9 24 -11 34 -32 50z" />
    <glyph glyph-name="z" unicode="z" horiz-adv-x="510" 
d="M63 436v65h380l-291 -460h157c58 0 103 -5 143 41v-82h-414l291 469h-196c-18 0 -48 -3 -70 -33z" />
    <glyph glyph-name="braceleft" unicode="{" horiz-adv-x="517" 
d="M287 740c44 31 112 40 160 40v-29c-127 -22 -161 -48 -161 -182v-79c0 -63 6 -113 -52 -158c-48 -36 -121 -47 -165 -57c146 -21 214 -50 214 -213v-73c0 -70 -11 -119 77 -166c30 -16 50 -20 87 -25v-27c-69 0 -138 10 -192 64c-50 50 -45 96 -45 157v79
c0 67 8 114 -61 151c-36 19 -73 25 -114 33v46c132 17 176 48 176 185v71c0 70 -8 126 76 183z" />
    <glyph glyph-name="bar" unicode="|" horiz-adv-x="141" 
d="M46 -161v1089h35v-1089h-35v0z" />
    <glyph glyph-name="braceright" unicode="}" horiz-adv-x="517" 
d="M52 780c48 0 116 -9 160 -40c84 -57 76 -113 76 -183v-71c0 -137 44 -168 176 -185v-46c-41 -8 -78 -14 -114 -33c-69 -37 -61 -84 -61 -151v-79c0 -61 5 -107 -45 -157c-54 -54 -123 -64 -192 -64v27c37 5 57 9 87 25c88 47 76 96 76 166v73c0 163 68 192 215 213
c-44 10 -117 21 -165 57c-58 45 -52 95 -52 158v79c0 134 -34 160 -161 182v29z" />
    <glyph glyph-name="asciitilde" unicode="~" horiz-adv-x="445" 
d="M329 639c8 9 16 23 20 34h29c-12 -47 -31 -90 -82 -102c-64 -15 -89 21 -152 39c-24 7 -41 6 -56 -6c-12 -11 -19 -25 -24 -38h-26c10 49 28 84 78 97c63 19 87 -28 156 -40c19 -3 40 -3 57 16z" />
    <glyph glyph-name="Adieresis" unicode="&#xc4;" horiz-adv-x="702" 
d="M33 62l298 689l291 -683c16 -36 26 -43 57 -68h-179c28 24 34 35 23 70c-4 14 -27 69 -30 75l-38 85h-294l-46 -104l-27 -64c-12 -32 -6 -37 19 -62h-118v0c18 18 33 38 44 62zM307 587l-128 -309h255zM224 821c-28 0 -49 21 -49 48c0 28 21 49 49 49s50 -21 50 -49
c0 -27 -22 -48 -50 -48zM431 821c-28 0 -49 21 -49 48c0 28 21 49 49 49s50 -21 50 -49c0 -27 -22 -48 -50 -48z" />
    <glyph glyph-name="Aring" unicode="&#xc5;" horiz-adv-x="702" 
d="M33 62l298 689l291 -683c16 -36 26 -43 57 -68h-179c28 24 34 35 23 70c-4 14 -27 69 -30 75l-38 85h-294l-46 -104l-27 -64c-12 -32 -6 -37 19 -62h-118v0c18 18 33 38 44 62zM307 587l-128 -309h255zM274 1065c11 7 22 14 37 17c29 7 65 1 96 -27
c34 -32 44 -82 39 -120c-7 -40 -28 -83 -72 -104c-28 -13 -63 -14 -94 4c-41 26 -60 71 -61 110c-2 34 10 87 55 120zM326 1069c-58 -10 -65 -91 -63 -128c2 -34 9 -73 41 -93c17 -10 37 -10 51 -4c28 13 39 40 44 69c8 38 5 106 -21 135c-18 19 -36 23 -52 21z" />
    <glyph glyph-name="Ccedilla" unicode="&#xc7;" horiz-adv-x="789" 
d="M383 -103l41 90c-69 0 -136 19 -199 57c-133 78 -193 197 -193 310c0 117 43 249 189 337c148 91 327 68 487 -11l7 -163c-38 111 -74 155 -190 185c-76 20 -197 7 -269 -56c-108 -94 -122 -228 -111 -326c13 -98 47 -197 168 -258c76 -40 210 -37 279 2
c68 37 105 93 133 162l-7 -159c-83 -46 -171 -75 -259 -80l-23 -56c36 6 78 7 103 -28c15 -19 18 -46 7 -72c-22 -42 -74 -56 -113 -56c-25 0 -50 3 -94 17l12 30c31 -8 85 -22 113 3c9 8 15 20 15 34c0 10 -10 24 -25 33c-7 0 -16 4 -36 4c-15 0 -20 -11 -35 1z" />
    <glyph glyph-name="Eacute" unicode="&#xc9;" horiz-adv-x="569" 
d="M487 0h-441c24 29 27 33 27 63v610c0 30 -3 34 -27 63h412v-77c-24 23 -92 40 -155 40c-61 0 -126 -2 -135 -2v0v-269h162c30 0 60 17 68 30v-96c-25 24 -40 28 -68 28h-162v-339c57 -14 198 -12 217 -10c59 5 82 8 119 69zM114 822l93 94c59 61 85 90 110 81
c14 -4 25 -18 26 -31c4 -30 -31 -46 -95 -83l-105 -61h-29z" />
    <glyph glyph-name="Ntilde" unicode="&#xd1;" horiz-adv-x="758" 
d="M37 736h122l444 -543v470c0 31 0 40 -31 73h110c-28 -31 -31 -41 -31 -74v-676l-535 649v-562c0 -33 3 -42 30 -73h-109c31 33 31 41 31 72v591c0 31 0 40 -31 73zM481 895c7 8 16 23 20 34h29c-12 -47 -31 -90 -82 -102c-64 -15 -89 21 -152 39c-24 7 -41 6 -56 -6
c-12 -11 -19 -26 -25 -38h-25c10 48 28 84 78 97c63 18 87 -28 156 -40c19 -3 40 -3 57 16z" />
    <glyph glyph-name="Odieresis" unicode="&#xd6;" horiz-adv-x="880" 
d="M252 708c39 19 81 33 125 38c115 14 258 -19 361 -139c90 -106 99 -233 70 -334c-37 -128 -132 -226 -277 -271c-110 -34 -252 -14 -364 79c-120 99 -149 210 -136 327c14 124 80 229 221 300v0zM376 703c-98 -15 -173 -72 -216 -183c-41 -105 -30 -279 53 -384
c79 -98 171 -118 255 -104c115 17 171 66 217 181c44 115 40 281 -49 392c-74 91 -188 109 -260 98zM274 822c-28 0 -49 21 -49 48c0 28 21 49 49 49c27 0 50 -21 50 -49c0 -27 -23 -48 -50 -48zM481 822c-28 0 -49 21 -49 48c0 28 21 49 49 49c27 0 50 -21 50 -49
c0 -27 -23 -48 -50 -48z" />
    <glyph glyph-name="Udieresis" unicode="&#xdc;" horiz-adv-x="712" 
d="M537 736h103c-24 -30 -27 -33 -27 -62v-404c0 -77 -3 -186 -101 -245c-92 -53 -246 -50 -333 -1c-111 64 -107 158 -107 242v407c0 30 -3 34 -27 63h149c-24 -30 -27 -33 -27 -62v-408c0 -78 -8 -155 85 -211c56 -34 178 -28 232 2c87 48 81 147 81 204v412
c0 30 -3 34 -28 63zM245 822c-27 0 -49 21 -49 48c0 28 22 49 49 49c28 0 50 -21 50 -49c0 -27 -22 -48 -50 -48zM452 822c-27 0 -49 21 -49 48c0 28 22 49 49 49c28 0 50 -21 50 -49c0 -27 -22 -48 -50 -48z" />
    <glyph glyph-name="aacute" unicode="&#xe1;" horiz-adv-x="496" 
d="M396 74c1 -35 -4 -30 31 -54c-18 -7 -67 -33 -86 -21c-16 11 -21 29 -27 57c-76 -52 -154 -94 -227 -49c-52 33 -70 93 -64 139c14 98 71 107 166 135l36 10c10 2 34 8 54 16c20 7 19 6 38 15c0 84 5 120 -25 142c-26 19 -92 22 -127 3c-45 -23 -72 -69 -93 -104v93
c82 61 177 77 259 37c77 -40 65 -101 65 -166v-253zM318 283l-48 -13c-69 -21 -151 -32 -163 -114c-4 -36 6 -82 44 -106c42 -27 121 7 167 39v194zM126 566l94 94c59 61 85 91 110 81c14 -4 25 -18 26 -31c4 -30 -31 -45 -95 -83l-105 -61h-30z" />
    <glyph glyph-name="agrave" unicode="&#xe0;" horiz-adv-x="496" 
d="M399 74c1 -35 -4 -30 31 -54c-18 -7 -67 -33 -86 -21c-16 11 -21 29 -27 57c-76 -52 -154 -94 -227 -49c-52 33 -70 93 -63 139c13 98 71 107 165 135l36 10c10 2 34 8 54 16c21 7 19 6 39 15c0 84 4 120 -26 142c-25 19 -92 22 -127 3c-45 -23 -71 -69 -93 -104v93
c82 61 178 77 259 37c77 -40 65 -101 65 -166v-253zM322 283l-49 -13c-69 -21 -151 -32 -163 -114c-4 -36 6 -82 44 -106c42 -27 121 7 168 39v194zM236 660l93 -94h-30l-105 61c-63 38 -98 53 -94 83c1 13 11 27 25 31c26 10 51 -20 111 -81z" />
    <glyph glyph-name="acircumflex" unicode="&#xe2;" horiz-adv-x="496" 
d="M396 74c1 -35 -4 -30 31 -54c-18 -7 -67 -33 -86 -21c-16 11 -21 29 -27 57c-76 -52 -154 -94 -227 -49c-52 33 -70 93 -64 139c14 98 71 107 166 135l36 10c10 2 34 8 54 16c20 7 19 6 38 15c0 84 5 120 -25 142c-26 19 -92 22 -127 3c-45 -23 -72 -69 -93 -104v93
c82 61 177 77 259 37c77 -40 65 -101 65 -166v-253zM318 283l-48 -13c-69 -21 -151 -32 -163 -114c-4 -36 6 -82 44 -106c42 -27 121 7 167 39v194zM200 740h57l126 -174h-34l-121 109l-121 -109h-34z" />
    <glyph glyph-name="adieresis" unicode="&#xe4;" horiz-adv-x="496" 
d="M399 74c1 -35 -4 -30 31 -54c-18 -7 -67 -33 -86 -21c-16 11 -21 29 -27 57c-76 -52 -154 -94 -227 -49c-52 33 -70 93 -63 139c13 98 71 107 165 135l36 10c10 2 34 8 54 16c21 7 19 6 39 15c0 84 4 120 -26 142c-25 19 -92 22 -127 3c-45 -23 -71 -69 -93 -104v93
c82 61 178 77 259 37c77 -40 65 -101 65 -166v-253zM322 283l-49 -13c-69 -21 -151 -32 -163 -114c-4 -36 6 -82 44 -106c42 -27 121 7 168 39v194zM117 566c-28 0 -49 21 -49 49c0 27 21 48 49 48c27 0 50 -21 50 -48c0 -28 -23 -49 -50 -49zM324 566c-28 0 -49 21 -49 49
c0 27 21 48 49 48c27 0 50 -21 50 -48c0 -28 -23 -49 -50 -49z" />
    <glyph glyph-name="atilde" unicode="&#xe3;" horiz-adv-x="496" 
d="M396 74c1 -35 -4 -30 31 -54c-18 -7 -67 -33 -86 -21c-16 11 -21 29 -27 57c-76 -52 -154 -94 -227 -49c-52 33 -70 93 -64 139c14 98 71 107 166 135l36 10c10 2 34 8 54 16c20 7 19 6 38 15c0 84 5 120 -25 142c-26 19 -92 22 -127 3c-45 -23 -72 -69 -93 -104v93
c82 61 177 77 259 37c77 -40 65 -101 65 -166v-253zM318 283l-48 -13c-69 -21 -151 -32 -163 -114c-4 -36 6 -82 44 -106c42 -27 121 7 167 39v194zM349 639c8 9 16 23 20 34h29c-12 -47 -31 -90 -82 -102c-63 -15 -89 21 -151 39c-25 7 -42 6 -57 -6
c-11 -11 -19 -25 -24 -38h-26c10 49 28 84 78 97c64 19 87 -28 156 -40c19 -3 40 -3 57 16z" />
    <glyph glyph-name="aring" unicode="&#xe5;" horiz-adv-x="496" 
d="M399 74c1 -35 -4 -30 31 -54c-18 -7 -67 -33 -86 -21c-16 11 -21 29 -27 57c-76 -52 -154 -94 -227 -49c-52 33 -70 93 -63 139c13 98 71 107 165 135l36 10c10 2 34 8 54 16c21 7 19 6 39 15c0 84 4 120 -26 142c-25 19 -92 22 -127 3c-45 -23 -71 -69 -93 -104v93
c82 61 178 77 259 37c77 -40 65 -101 65 -166v-253zM322 283l-49 -13c-69 -21 -151 -32 -163 -114c-4 -36 6 -82 44 -106c42 -27 121 7 168 39v194zM176 809c11 7 23 14 37 17c29 7 65 1 96 -27c34 -31 45 -81 39 -120c-6 -40 -27 -82 -72 -104c-28 -12 -63 -13 -93 5
c-42 25 -61 70 -62 109c-2 34 11 87 55 120zM228 813c-58 -9 -65 -91 -62 -128c2 -34 8 -72 40 -93c17 -10 37 -10 51 -4c29 13 39 40 44 69c8 38 6 106 -21 135c-18 19 -36 23 -52 21z" />
    <glyph glyph-name="ccedilla" unicode="&#xe7;" horiz-adv-x="478" 
d="M200 -103l41 91c-51 5 -106 27 -151 79c-66 77 -74 195 -50 274c27 84 86 147 172 169c53 12 132 1 197 -42v-110c-46 78 -75 124 -147 124c-44 0 -86 -23 -117 -75c-37 -62 -40 -198 -4 -264c31 -58 85 -101 139 -101c50 0 101 20 154 65c-32 -79 -75 -106 -143 -117
c-5 0 -11 -2 -16 -2l-22 -57c36 6 77 7 103 -28c14 -19 18 -46 6 -72c-21 -42 -73 -56 -113 -56c-25 0 -49 3 -94 17l13 30c31 -8 85 -22 112 3c10 8 15 20 15 34c0 10 -9 24 -24 33c-8 0 -16 4 -36 4c-15 0 -21 -11 -35 1z" />
    <glyph glyph-name="eacute" unicode="&#xe9;" horiz-adv-x="506" 
d="M368 477c64 -50 78 -113 80 -177h-342c-3 -64 12 -169 85 -223c46 -32 104 -36 152 -19c34 13 61 34 103 81c-18 -74 -61 -120 -132 -140c-65 -19 -140 -17 -205 42c-79 70 -96 206 -84 277c16 80 69 153 154 185c51 19 129 20 189 -26zM361 335c0 49 -12 93 -44 124
c-30 28 -78 31 -107 23c-71 -22 -94 -87 -100 -147h251zM126 566l94 94c59 61 85 91 110 81c14 -4 25 -18 26 -31c4 -30 -31 -45 -95 -83l-105 -61h-30z" />
    <glyph glyph-name="egrave" unicode="&#xe8;" horiz-adv-x="506" 
d="M368 477c64 -50 78 -113 80 -177h-342c-3 -64 12 -169 85 -223c46 -32 104 -36 152 -19c34 13 61 34 103 81c-18 -74 -61 -120 -132 -140c-65 -19 -140 -17 -205 42c-79 70 -96 206 -84 277c16 80 69 153 154 185c51 19 129 20 189 -26zM361 335c0 49 -12 93 -44 124
c-30 28 -78 31 -107 23c-71 -22 -94 -87 -100 -147h251zM254 660l93 -94h-30l-105 61c-63 38 -98 53 -94 83c1 13 12 27 25 31c26 10 51 -20 111 -81z" />
    <glyph glyph-name="ecircumflex" unicode="&#xea;" horiz-adv-x="506" 
d="M365 477c64 -50 78 -113 80 -177h-342c-3 -64 12 -169 85 -223c46 -32 104 -36 152 -19c34 13 61 34 103 81c-18 -74 -61 -120 -132 -140c-65 -19 -140 -17 -205 42c-79 70 -96 206 -84 277c16 80 69 153 154 185c51 19 129 20 189 -26zM358 335c0 49 -12 93 -44 124
c-31 28 -78 31 -107 23c-71 -22 -94 -87 -100 -147h251zM210 740h58l126 -174h-34l-121 109l-121 -109h-34z" />
    <glyph glyph-name="edieresis" unicode="&#xeb;" horiz-adv-x="506" 
d="M365 477c64 -50 78 -113 80 -177h-342c-3 -64 12 -169 85 -223c46 -32 104 -36 152 -19c34 13 61 34 103 81c-18 -74 -61 -120 -132 -140c-65 -19 -140 -17 -205 42c-79 70 -96 206 -84 277c16 80 69 153 154 185c51 19 129 20 189 -26zM358 335c0 49 -12 93 -44 124
c-31 28 -78 31 -107 23c-71 -22 -94 -87 -100 -147h251zM139 566c-28 0 -49 21 -49 49c0 27 21 48 49 48s50 -21 50 -48c0 -28 -22 -49 -50 -49zM346 566c-28 0 -49 21 -49 49c0 27 21 48 49 48s50 -21 50 -48c0 -28 -22 -49 -50 -49z" />
    <glyph glyph-name="iacute" unicode="&#xed;" horiz-adv-x="229" 
d="M160 0h-119c18 30 20 40 20 62v370c0 34 0 36 -26 57l106 26v-452c0 -22 1 -33 19 -63zM-20 566l93 94c60 61 85 91 111 81c13 -4 24 -18 25 -31c4 -30 -31 -45 -94 -83l-105 -61h-30z" />
    <glyph glyph-name="igrave" unicode="&#xec;" horiz-adv-x="229" 
d="M160 0h-119c18 30 20 40 20 62v370c0 34 0 36 -26 57l106 26v-452c0 -22 1 -33 19 -63zM118 660l93 -94h-29l-106 61c-63 38 -98 53 -94 83c1 13 12 27 25 31c26 10 51 -20 111 -81z" />
    <glyph glyph-name="icircumflex" unicode="&#xee;" horiz-adv-x="229" 
d="M160 0h-119c18 30 20 40 20 62v370c0 34 0 36 -26 57l106 26v-452c0 -22 1 -33 19 -63zM66 740h57l126 -174h-34l-121 109l-121 -109h-34z" />
    <glyph glyph-name="idieresis" unicode="&#xef;" horiz-adv-x="229" 
d="M160 0h-119c18 30 20 40 20 62v370c0 34 0 36 -26 57l106 26v-452c0 -22 1 -33 19 -63zM-12 566c-27 0 -49 21 -49 49c0 27 22 48 49 48c28 0 50 -21 50 -48c0 -28 -22 -49 -50 -49zM195 566c-27 0 -49 21 -49 49c0 27 22 48 49 48c28 0 50 -21 50 -48
c0 -28 -22 -49 -50 -49z" />
    <glyph glyph-name="ntilde" unicode="&#xf1;" horiz-adv-x="557" 
d="M146 515v-78c80 66 152 99 236 63c88 -38 83 -130 83 -202v-235c0 -22 1 -33 19 -63h-119c18 30 19 40 19 62v233c0 65 6 117 -47 153c-28 19 -81 22 -118 5c-25 -10 -43 -25 -73 -54v-336c0 -22 2 -33 20 -63h-119c18 30 19 40 19 62v370c0 34 0 36 -26 57zM378 639
c7 9 16 23 20 34h29c-12 -47 -31 -90 -82 -102c-64 -15 -89 21 -152 39c-24 7 -41 6 -56 -6c-12 -11 -19 -25 -24 -38h-26c10 49 28 84 78 97c63 19 87 -28 156 -40c19 -3 40 -3 57 16z" />
    <glyph glyph-name="oacute" unicode="&#xf3;" horiz-adv-x="538" 
d="M143 482c20 14 45 23 72 29c63 12 132 -3 196 -67c72 -71 84 -170 69 -247c-16 -78 -67 -159 -154 -194v0c-64 -26 -136 -18 -192 20c-82 56 -113 156 -112 233c0 81 40 174 121 226zM203 470c-73 -40 -89 -158 -92 -207c-2 -49 8 -175 81 -221c37 -23 82 -21 115 -4
c75 41 88 177 89 210c2 38 -11 172 -82 217c-33 20 -82 21 -111 5zM158 566l94 94c59 61 85 91 110 81c14 -4 24 -18 25 -31c5 -30 -30 -45 -94 -83l-105 -61h-30z" />
    <glyph glyph-name="ograve" unicode="&#xf2;" horiz-adv-x="538" 
d="M146 482c21 14 45 23 73 29c62 12 131 -3 195 -67c72 -71 84 -170 69 -247c-16 -78 -67 -159 -154 -194v0c-64 -26 -136 -18 -192 20c-82 56 -113 156 -112 233c0 81 40 174 121 226zM206 470c-73 -40 -89 -158 -91 -207s7 -175 80 -221c37 -23 82 -21 115 -4
c75 41 88 177 89 210c2 38 -10 172 -82 217c-32 20 -81 21 -111 5zM246 660l94 -94h-30l-105 61c-64 38 -99 53 -95 83c1 13 12 27 26 31c25 10 51 -20 110 -81z" />
    <glyph glyph-name="ocircumflex" unicode="&#xf4;" horiz-adv-x="538" 
d="M146 482c21 14 45 23 73 29c62 12 131 -3 195 -67c72 -71 84 -170 69 -247c-16 -78 -67 -159 -154 -194v0c-64 -26 -136 -18 -192 20c-82 56 -113 156 -112 233c0 81 40 174 121 226zM206 470c-73 -40 -89 -158 -91 -207s7 -175 80 -221c37 -23 82 -21 115 -4
c75 41 88 177 89 210c2 38 -10 172 -82 217c-32 20 -81 21 -111 5zM227 740h58l126 -174h-34l-121 109l-121 -109h-34z" />
    <glyph glyph-name="odieresis" unicode="&#xf6;" horiz-adv-x="538" 
d="M146 482c21 14 45 23 73 29c62 12 131 -3 195 -67c72 -71 84 -170 69 -247c-16 -78 -67 -159 -154 -194v0c-64 -26 -136 -18 -192 20c-82 56 -113 156 -112 233c0 81 40 174 121 226zM206 470c-73 -40 -89 -158 -91 -207s7 -175 80 -221c37 -23 82 -21 115 -4
c75 41 88 177 89 210c2 38 -10 172 -82 217c-32 20 -81 21 -111 5zM138 566c-28 0 -49 21 -49 49c0 27 21 48 49 48s50 -21 50 -48c0 -28 -22 -49 -50 -49zM345 566c-28 0 -49 21 -49 49c0 27 21 48 49 48s50 -21 50 -48c0 -28 -22 -49 -50 -49z" />
    <glyph glyph-name="otilde" unicode="&#xf5;" horiz-adv-x="538" 
d="M146 482c21 14 45 23 73 29c62 12 131 -3 195 -67c72 -71 84 -170 69 -247c-16 -78 -67 -159 -154 -194v0c-64 -26 -136 -18 -192 20c-82 56 -113 156 -112 233c0 81 40 174 121 226zM206 470c-73 -40 -89 -158 -91 -207s7 -175 80 -221c37 -23 82 -21 115 -4
c75 41 88 177 89 210c2 38 -10 172 -82 217c-32 20 -81 21 -111 5zM393 639c7 9 16 23 20 34h29c-12 -47 -31 -90 -82 -102c-64 -15 -89 21 -152 39c-24 7 -41 6 -56 -6c-12 -11 -19 -25 -25 -38h-25c9 49 28 84 77 97c64 19 87 -28 156 -40c20 -3 41 -3 58 16z" />
    <glyph glyph-name="uacute" unicode="&#xfa;" horiz-adv-x="552" 
d="M462 515v-444c0 -33 4 -39 31 -57l-80 -26c-23 17 -34 28 -34 82c-74 -75 -145 -99 -221 -69c-101 40 -96 112 -96 205v226c0 34 0 36 -26 57l106 26v-298c0 -62 -6 -116 53 -159c28 -19 74 -21 111 -6c35 14 50 29 75 54v326c0 34 0 36 -25 57zM160 566l94 94
c59 61 85 91 110 81c14 -4 25 -18 26 -31c4 -30 -31 -45 -95 -83l-105 -61h-30z" />
    <glyph glyph-name="ugrave" unicode="&#xf9;" horiz-adv-x="552" 
d="M459 515v-444c0 -33 4 -39 30 -57l-79 -26c-24 17 -34 28 -34 82c-75 -75 -146 -99 -221 -69c-101 40 -97 112 -97 205v226c0 34 0 36 -25 57l106 26v-298c0 -62 -6 -116 53 -159c28 -19 73 -21 111 -6c35 14 49 29 75 54v326c0 34 0 36 -26 57zM253 660l93 -94h-30
l-105 61c-63 38 -98 53 -94 83c1 13 11 27 25 31c26 10 51 -20 111 -81z" />
    <glyph glyph-name="ucircumflex" unicode="&#xfb;" horiz-adv-x="552" 
d="M462 515v-444c0 -33 4 -39 31 -57l-80 -26c-23 17 -34 28 -34 82c-74 -75 -145 -99 -221 -69c-101 40 -96 112 -96 205v226c0 34 0 36 -26 57l106 26v-298c0 -62 -6 -116 53 -159c28 -19 74 -21 111 -6c35 14 50 29 75 54v326c0 34 0 36 -25 57zM234 740h57l126 -174h-34
l-121 109l-121 -109h-34z" />
    <glyph glyph-name="udieresis" unicode="&#xfc;" horiz-adv-x="552" 
d="M462 515v-444c0 -33 4 -39 31 -57l-80 -26c-23 17 -34 28 -34 82c-74 -75 -145 -99 -221 -69c-101 40 -96 112 -96 205v226c0 34 0 36 -26 57l106 26v-298c0 -62 -6 -116 53 -159c28 -19 74 -21 111 -6c35 14 50 29 75 54v326c0 34 0 36 -25 57zM137 566
c-28 0 -49 21 -49 49c0 27 21 48 49 48s50 -21 50 -48c0 -28 -22 -49 -50 -49zM344 566c-28 0 -49 21 -49 49c0 27 21 48 49 48s50 -21 50 -48c0 -28 -22 -49 -50 -49z" />
    <glyph glyph-name="dagger" unicode="&#x2020;" horiz-adv-x="574" 
d="M234 -116v496h-150c-28 0 -31 -3 -49 -16v92c19 -11 27 -14 49 -14h150c0 -1 0 243 0 243c0 20 -4 27 -14 51h101c-12 -25 -15 -31 -15 -51v-243h149c23 0 30 3 49 14v-92c-18 13 -21 16 -49 16h-149v-496c0 -27 4 -33 23 -57h-119c21 25 24 29 24 57z" />
    <glyph glyph-name="cent" unicode="&#xa2;" horiz-adv-x="503" 
d="M239 644l-3 71h51v0l-5 -71c39 -3 84 -11 136 -46v-111c-38 69 -60 111 -138 122v-436c67 1 110 18 159 59c-35 -84 -89 -104 -159 -113l6 -86h-52v0s4 58 5 87c-106 25 -168 79 -191 189c-17 77 -7 210 95 289c36 28 59 36 96 46zM239 604c-15 -2 -39 -18 -46 -23
c-65 -58 -70 -161 -67 -209c6 -65 30 -133 113 -183v415z" />
    <glyph glyph-name="sterling" unicode="&#xa3;" horiz-adv-x="536" 
d="M224 744c77 16 127 -1 221 -45v-127c-36 82 -65 124 -151 136c-35 5 -85 0 -120 -41c-28 -34 -28 -91 -14 -132c9 -24 30 -68 54 -108h147v-46h-129c32 -118 14 -202 -81 -324c52 20 80 25 147 15l39 -5c41 -5 81 -8 132 23l-53 -96c-53 -16 -101 -2 -170 5
c-73 7 -96 9 -187 -7c87 122 136 199 93 322c-4 13 -10 27 -29 67v0h-85v46h66c-30 67 -55 144 -19 215c29 54 85 90 139 102z" />
    <glyph glyph-name="section" unicode="&#xa7;" horiz-adv-x="516" 
d="M178 739c63 21 137 10 215 -33v-109c-18 52 -32 94 -98 111c-35 10 -96 9 -132 -21c-23 -20 -31 -43 -29 -68c6 -58 56 -77 118 -111l57 -31c99 -56 145 -85 146 -176c1 -45 -16 -105 -76 -132l-35 -16c80 -65 108 -105 97 -181c-10 -59 -45 -106 -112 -132
c-83 -33 -153 -28 -248 35v144c15 -56 37 -127 113 -153c41 -12 104 -7 141 23c31 24 44 59 42 89c-7 60 -50 76 -116 113l-59 34c-99 57 -158 101 -157 196c0 64 23 102 101 147c-64 67 -83 98 -67 165c11 51 46 86 99 106zM183 449c-56 -24 -83 -56 -83 -100
c1 -76 162 -153 210 -177c5 -2 7 -3 10 -3c75 26 78 77 77 106c-3 64 -87 100 -131 125z" />
    <glyph glyph-name="bullet" unicode="&#x2022;" horiz-adv-x="205" 
d="M88 317c-27 0 -51 24 -51 51c0 28 24 51 51 51c28 0 51 -23 51 -51c0 -27 -23 -51 -51 -51z" />
    <glyph glyph-name="paragraph" unicode="&#xb6;" horiz-adv-x="557" 
d="M315 749h186v-26h-75v-824h-31v824h-107v-824h-31v434c-58 5 -144 17 -184 95c-33 64 -33 173 2 230c63 99 164 91 240 91z" />
    <glyph glyph-name="germandbls" unicode="&#xdf;" horiz-adv-x="538" 
d="M387 576c-12 -77 -58 -95 -117 -122c72 -9 138 -18 181 -105c35 -70 29 -179 -12 -250c-29 -55 -75 -105 -136 -112c-44 -4 -61 3 -110 38l32 103c3 -34 10 -79 46 -96c15 -7 40 -8 57 4c52 33 58 164 59 194c0 47 -9 135 -75 177c-38 23 -66 25 -115 29v27
c42 4 74 9 100 55c26 45 26 107 10 144c-11 25 -29 44 -59 51c-24 6 -48 4 -69 -12c-39 -33 -34 -105 -34 -135v-566h-104c23 31 25 42 25 72v465c0 83 -7 148 87 195c43 23 133 25 179 -9c54 -40 64 -92 55 -147z" />
    <glyph glyph-name="registered" unicode="&#xae;" horiz-adv-x="805" 
d="M389 -14c-200 0 -361 162 -361 361c0 200 161 361 361 361c199 0 362 -161 362 -361c0 -199 -163 -361 -362 -361zM64 347c0 -179 145 -325 325 -325c179 0 325 146 325 325c0 180 -146 325 -325 325c-180 0 -325 -145 -325 -325zM185 533v24h163c52 0 164 4 206 -61
c16 -25 19 -54 9 -77c-27 -56 -91 -65 -138 -76c67 -29 90 -63 105 -126c5 -25 6 -49 21 -57c7 -3 15 -2 23 3c19 13 20 42 24 72h24c-2 -35 -8 -83 -52 -101c-24 -11 -66 -11 -89 8c-33 26 -26 112 -35 141c-9 30 -29 50 -59 52c-15 2 -41 0 -60 0v-64v-54
c0 -25 -2 -42 16 -54c7 -5 22 -5 54 -5v-24h-209v24c26 0 50 0 60 12c10 10 8 39 8 84v182c0 60 3 82 -17 93c-9 4 -46 4 -54 4zM327 362c29 0 98 0 121 17c31 21 35 55 34 79c-2 30 -14 52 -41 66c-18 10 -78 14 -95 5c-21 -12 -19 -29 -19 -53v-58v-56z" />
    <glyph glyph-name="copyright" unicode="&#xa9;" horiz-adv-x="805" 
d="M385 -14c-199 0 -361 162 -361 361c0 200 162 361 361 361c200 0 362 -161 362 -361c0 -199 -162 -361 -362 -361zM61 347c0 -179 145 -325 324 -325c180 0 326 146 326 325c0 180 -146 325 -326 325c-179 0 -324 -145 -324 -325zM504 547c26 -1 24 17 29 35h22v-178h-21
c-10 49 -35 123 -98 148c-32 13 -71 15 -106 -8c-61 -42 -70 -131 -71 -183c0 -47 13 -140 71 -179c29 -21 86 -24 120 -10c45 18 63 38 96 88l20 -12c-54 -91 -104 -118 -188 -118c-60 0 -126 26 -171 99c-44 71 -46 170 -11 238c39 73 104 113 173 118c24 1 52 -3 67 -8
c3 -1 13 -4 34 -14c8 -4 26 -16 34 -16z" />
    <glyph glyph-name="trademark" unicode="&#x2122;" horiz-adv-x="808" 
d="M144 413v316h-39c-26 0 -57 2 -77 -22v42h135h145v-42c-20 24 -51 22 -78 22h-39v-317c0 -14 2 -16 14 -31h-74c11 15 13 17 13 32zM351 749h65l124 -297l123 297h68c-12 -14 -13 -18 -13 -30v-307c0 -13 1 -16 13 -31h-75c13 16 14 18 14 33v283l-139 -323l-141 318
v-273c0 -18 1 -21 14 -38h-54c15 18 15 22 15 36v300c0 14 -1 17 -14 32z" />
    <glyph glyph-name="acute" unicode="&#xb4;" horiz-adv-x="333" 
d="M36 566l94 94c59 61 84 91 110 81c14 -4 24 -18 25 -31c5 -30 -30 -45 -94 -83l-105 -61h-30z" />
    <glyph glyph-name="dieresis" unicode="&#xa8;" horiz-adv-x="411" 
d="M90 566c-27 0 -49 21 -49 49c0 27 22 48 49 48c28 0 50 -21 50 -48c0 -28 -22 -49 -50 -49zM297 566c-27 0 -49 21 -49 49c0 27 22 48 49 48c28 0 50 -21 50 -48c0 -28 -22 -49 -50 -49z" />
    <glyph glyph-name="AE" unicode="&#xc6;" horiz-adv-x="1006" 
d="M550 736h366v-77c-23 23 -91 40 -155 40c-60 0 -125 -2 -135 -2v0v-269h163c29 0 59 17 68 30v-96c-26 24 -41 28 -68 28h-163v-339c58 -14 199 -12 218 -10c58 5 82 8 119 69l-17 -110h-442c25 29 28 33 28 63v229h-238l-101 -183l-30 -55c-14 -27 -12 -35 10 -54h-112
c20 21 33 35 50 67l322 563c30 53 34 76 9 106h108zM532 692c0 8 -9 15 -17 -1l-199 -360h216v361z" />
    <glyph glyph-name="Oslash" unicode="&#xd8;" horiz-adv-x="880" 
d="M682 794h67l-88 -121c139 -116 168 -224 149 -346c-24 -160 -148 -263 -238 -305c-114 -54 -249 -50 -378 34l-77 -107h-60l99 137c-106 101 -136 192 -129 297c8 136 74 244 209 321c119 68 269 57 386 -3c31 42 47 65 60 93zM585 649c-67 51 -133 63 -184 61
c-108 -6 -180 -53 -233 -158c-61 -121 -45 -287 34 -404zM620 616l-386 -506c62 -59 172 -93 259 -69c101 41 151 85 187 191c39 116 32 263 -60 384z" />
    <glyph glyph-name="infinity" unicode="&#x221e;" horiz-adv-x="469" 
d="M-11 501h128c-20 -21 -24 -30 -9 -72l110 -304l115 275c28 65 24 78 4 101h106c-27 -16 -35 -33 -48 -62l-302 -687h-76c42 39 57 62 80 110l77 169l-29 83l-124 337c-8 24 -10 34 -32 50zM137 566l93 94c60 61 85 91 111 81c14 -4 24 -18 25 -31c4 -30 -31 -45 -94 -83
l-105 -61h-30z" />
    <glyph glyph-name="plusminus" unicode="&#xb1;" horiz-adv-x="728" 
d="M327 452v178h49v-178h284v0v-48h-284v-179h-49v179h-289v48h289zM38 55v48h622v-48h-622z" />
    <glyph glyph-name="yen" unicode="&#xa5;" horiz-adv-x="680" 
d="M401 157v-95c6 -29 3 -32 28 -62h-150c25 29 26 33 28 63v94h-201v49h201v99h-201v49h201v20l-50 81l-139 219c-21 33 -36 44 -62 62h180c-28 -25 -31 -29 -17 -58l38 -61l125 -194l103 197c14 26 26 46 32 60c15 32 6 38 -17 56h133c-33 -25 -46 -37 -63 -66l-123 -215
l-46 -80v-21h186v-49h-186v-99h186v-49h-186z" />
    <glyph glyph-name="mu" unicode="&#xb5;" horiz-adv-x="690" 
d="M50 -68l23 521h90v-218c0 -81 -6 -127 57 -162c21 -11 72 -14 100 3c49 30 46 95 46 179v200h97v-253c0 -52 -3 -103 30 -129c13 -10 40 -14 61 -6c26 8 35 30 44 57c12 42 12 51 23 52c10 -1 12 -27 12 -34c1 -12 1 -26 0 -36c-1 -24 -8 -50 -25 -71
c-24 -31 -63 -39 -93 -36c-36 3 -65 20 -86 64c-10 20 -17 45 -17 44c-20 -54 -51 -103 -126 -108c-76 -5 -116 32 -146 98l5 -138c1 -32 9 -148 -27 -167c-14 -9 -34 -9 -48 1c-32 22 -21 113 -20 139z" />
    <glyph glyph-name="mu" unicode="&#x3bc;" horiz-adv-x="690" 
d="M50 -68l23 521h90v-218c0 -81 -6 -127 57 -162c21 -11 72 -14 100 3c49 30 46 95 46 179v200h97v-253c0 -52 -3 -103 30 -129c13 -10 40 -14 61 -6c26 8 35 30 44 57c12 42 12 51 23 52c10 -1 12 -27 12 -34c1 -12 1 -26 0 -36c-1 -24 -8 -50 -25 -71
c-24 -31 -63 -39 -93 -36c-36 3 -65 20 -86 64c-10 20 -17 45 -17 44c-20 -54 -51 -103 -126 -108c-76 -5 -116 32 -146 98l5 -138c1 -32 9 -148 -27 -167c-14 -9 -34 -9 -48 1c-32 22 -21 113 -20 139z" />
    <glyph glyph-name="partialdiff" unicode="&#x2202;" horiz-adv-x="846" 
d="M39 685l117 64v-397c0 -26 0 -30 21 -53h-110c25 23 23 27 23 53v298c0 29 -5 35 -20 35h-31zM645 201v149l-157 -149h157zM711 157v-104c0 -26 0 -31 21 -53h-110c26 22 23 27 23 53v104h-235l300 292v-248h61v-44h-60zM411 418l198 334h63s-128 -190 -210 -326
l-254 -439h-64z" />
    <glyph glyph-name="summation" unicode="&#x2211;" horiz-adv-x="858" 
d="M658 144l-87 -90h165c27 0 34 0 52 18v-72h-329l139 138c75 74 127 120 112 192c-5 26 -25 52 -58 64c-61 21 -98 5 -155 -42c33 73 91 99 151 96c53 -2 103 -21 125 -81c31 -79 -28 -131 -115 -223zM32 685l117 64v-397c0 -26 0 -30 21 -53h-111c26 23 24 27 24 53v298
c0 29 -6 35 -20 35h-31zM402 418l199 334h62s-128 -190 -210 -326l-253 -439h-64z" />
    <glyph glyph-name="integral" unicode="&#x222b;" horiz-adv-x="868" 
d="M252 600c-20 -21 -50 -34 -69 -43c52 -11 98 -26 120 -87c13 -39 6 -79 -25 -118c-39 -49 -112 -65 -156 -60c-13 1 -30 4 -51 15c-12 5 -20 10 -25 15c-5 2 -23 15 -19 21c49 -26 111 -31 153 -8c37 20 56 54 59 84c2 25 -7 59 -38 84c-21 16 -84 33 -102 37
c46 23 112 39 116 99c3 24 -7 50 -35 68c-35 22 -72 16 -118 -6c47 44 83 59 138 44c30 -8 62 -30 73 -68c6 -22 2 -52 -21 -77zM426 418l198 334h63s-129 -190 -210 -326l-254 -439h-64zM665 201v149l-158 -149h158zM730 157v-104c0 -26 0 -31 22 -53h-111
c26 22 24 27 24 53v104h-236l300 292v-248h61v-44h-60z" />
    <glyph glyph-name="ordfeminine" unicode="&#xaa;" horiz-adv-x="305" 
d="M225 544c0 -17 -2 -15 15 -27c-9 -4 -33 -17 -43 -12c-8 7 -10 15 -13 30c-39 -27 -77 -48 -114 -24c-25 16 -35 45 -32 69c8 48 36 53 83 68l18 4c5 1 17 4 28 8c9 3 9 3 19 8c0 41 2 59 -13 71c-13 9 -47 10 -64 1c-22 -12 -36 -34 -46 -52v47c41 30 89 38 129 18
c38 -19 33 -50 33 -83v-126zM186 649l-25 -8c-34 -9 -75 -16 -80 -56c-2 -18 2 -41 21 -53c21 -14 60 3 84 19v98z" />
    <glyph glyph-name="ae" unicode="&#xe6;" horiz-adv-x="804" 
d="M653 335c0 49 -12 93 -44 124c-30 28 -78 31 -107 23c-71 -22 -94 -87 -100 -147h251zM320 283l-49 -13c-69 -21 -151 -32 -163 -114c-4 -36 6 -82 44 -106c42 -27 121 7 168 39v194zM332 493c26 -14 42 -30 51 -48c24 25 53 45 88 58c51 19 129 20 189 -26
c64 -50 80 -113 80 -177h-342c0 -64 12 -169 85 -223c46 -32 104 -36 152 -19c34 13 61 34 103 81c-18 -74 -61 -120 -132 -140c-65 -19 -140 -17 -205 42c-9 9 -19 18 -27 29c-5 6 -10 14 -13 21l-46 -35c-76 -52 -154 -94 -227 -49c-52 33 -70 93 -64 139
c14 98 69 109 166 135c0 0 69 18 90 26c20 7 19 6 38 15c0 84 5 120 -25 142c-25 19 -92 22 -127 3c-45 -23 -72 -69 -93 -104v93c82 61 178 77 259 37z" />
    <glyph glyph-name="oslash" unicode="&#xf8;" horiz-adv-x="572" 
d="M384 483l59 88h54l-76 -116c77 -85 94 -193 72 -276c-23 -82 -79 -154 -163 -181c-55 -18 -115 -14 -182 27l-61 -92h-52l78 122c-76 98 -91 199 -61 286c25 74 79 144 168 167c50 14 108 7 164 -25zM360 441c-38 37 -59 46 -101 42c-38 -4 -67 -25 -91 -63
c-48 -74 -46 -219 -16 -303zM387 398l-210 -325c44 -43 72 -52 109 -48c34 5 64 22 91 66c46 77 44 216 10 307z" />
    <glyph glyph-name="questiondown" unicode="&#xbf;" horiz-adv-x="420" 
d="M261 369l1 -6v-29c3 -93 13 -108 -26 -176l-36 -62c-34 -60 -102 -190 -62 -257c18 -31 47 -44 79 -44c37 0 77 25 104 68c12 21 25 55 30 71l6 -112c-77 -61 -139 -78 -209 -57c-51 15 -80 36 -99 91c-31 92 19 173 86 272l69 101c34 50 39 66 57 140zM255 515
c27 0 51 -23 51 -51s-24 -51 -51 -51c-28 0 -51 23 -51 51s23 51 51 51z" />
    <glyph glyph-name="exclamdown" unicode="&#xa1;" horiz-adv-x="211" 
d="M87 351h7l46 -421c3 -30 29 -172 -50 -172c-69 0 -52 138 -49 168zM90 515c28 0 51 -23 51 -51s-23 -51 -51 -51c-27 0 -51 23 -51 51s24 51 51 51z" />
    <glyph glyph-name="logicalnot" unicode="&#xac;" horiz-adv-x="236" 
d="M123 701c3 -10 60 -254 60 -254h-15l-81 175c-11 23 -50 93 -31 116c8 8 19 15 34 11c19 -4 27 -19 33 -48z" />
    <glyph glyph-name="radical" unicode="&#x221a;" horiz-adv-x="417" 
d="M172 561l-127 175h34l122 -110l124 110h33l-130 -175h-56z" />
    <glyph glyph-name="florin" unicode="&#x192;" horiz-adv-x="604" 
d="M381 741c42 17 97 8 153 -31v-82c-27 46 -59 95 -104 86c-47 -8 -55 -117 -57 -133l-15 -122h131v-38h-137l-53 -375c-9 -67 -23 -171 -112 -207c-48 -19 -96 -12 -152 23v20v73c30 -55 53 -96 108 -87c50 10 60 100 63 126l57 427h-131v38h137l11 66
c5 27 20 181 101 216z" />
    <glyph glyph-name="guillemotleft" unicode="&#xab;" horiz-adv-x="451" 
d="M226 408c6 7 14 3 3 -13c-38 -61 -83 -120 -104 -146c38 -45 54 -66 104 -152c3 -7 -2 -11 -6 -6c-62 65 -118 114 -178 158c70 54 116 96 181 159zM387 408c7 7 14 3 4 -13c-39 -61 -83 -120 -104 -146c38 -45 54 -66 104 -152c3 -7 -2 -11 -7 -6
c-61 65 -118 114 -178 158c70 54 117 96 181 159z" />
    <glyph glyph-name="guillemotright" unicode="&#xbb;" horiz-adv-x="450" 
d="M219 395c-11 16 -4 20 3 13c65 -63 111 -105 181 -159c-60 -44 -116 -93 -178 -158c-4 -5 -10 -1 -6 6c50 86 66 107 104 152c-22 26 -66 85 -104 146zM57 395c-10 16 -3 20 4 13c64 -63 111 -105 181 -159c-60 -44 -117 -93 -178 -158c-5 -5 -10 -1 -7 6
c50 86 66 107 104 152c-21 26 -65 85 -104 146z" />
    <glyph glyph-name="Agrave" unicode="&#xc0;" horiz-adv-x="702" 
d="M33 62l298 689l291 -683c16 -36 26 -43 57 -68h-179c28 24 34 35 23 70c-4 14 -27 69 -30 75l-38 85h-294l-46 -104l-27 -64c-12 -32 -6 -37 19 -62h-118v0c18 18 33 38 44 62zM307 587l-128 -309h255zM310 916l93 -94h-29l-105 61c-64 37 -99 53 -95 83
c1 13 12 27 26 31c25 9 51 -20 110 -81z" />
    <glyph glyph-name="Atilde" unicode="&#xc3;" horiz-adv-x="702" 
d="M33 62l298 689l291 -683c16 -36 26 -43 57 -68h-179c28 24 34 35 23 70c-4 14 -27 69 -30 75l-38 85h-294l-46 -104l-27 -64c-12 -32 -6 -37 19 -62h-118v0c18 18 33 38 44 62zM307 587l-128 -309h255zM467 895c8 8 16 23 20 34h29c-12 -47 -31 -90 -82 -102
c-64 -15 -89 21 -152 39c-24 7 -41 6 -56 -6c-12 -11 -19 -26 -24 -38h-26c10 48 28 84 78 97c63 18 87 -28 156 -40c19 -3 40 -3 57 16z" />
    <glyph glyph-name="Otilde" unicode="&#xd5;" horiz-adv-x="880" 
d="M252 708c39 19 81 33 125 38c115 14 258 -19 361 -139c90 -106 99 -233 70 -334c-37 -128 -132 -226 -277 -271c-110 -34 -252 -14 -364 79c-120 99 -149 210 -136 327c14 124 80 229 221 300v0zM376 703c-98 -15 -173 -72 -216 -183c-41 -105 -30 -279 53 -384
c79 -98 171 -118 255 -104c115 17 171 66 217 181c44 115 40 281 -49 392c-74 91 -188 109 -260 98zM534 895c7 8 16 23 20 34h29c-12 -47 -31 -90 -82 -102c-64 -15 -89 21 -152 39c-24 7 -41 6 -56 -6c-12 -11 -19 -26 -24 -38h-26c10 48 28 84 78 97
c63 18 87 -28 156 -40c19 -3 40 -3 57 16z" />
    <glyph glyph-name="OE" unicode="&#x152;" horiz-adv-x="1101" 
d="M676 736h322v-84c-35 54 -100 48 -157 48h-127v-270h113h57c32 1 26 -3 57 25v-90c-28 24 -25 24 -56 25h-57h-114v-340c50 -9 123 -12 167 -10c44 1 107 -4 166 66l-16 -106h-295l-194 -11v0c-7 0 -52 -2 -52 -2c-151 -3 -293 16 -394 203c-62 111 -62 259 15 375
c112 164 274 199 429 179c0 0 39 -5 62 -6c28 -1 26 -2 74 -2zM402 706c-46 -9 -117 -36 -167 -93c-86 -100 -91 -251 -65 -350c24 -92 92 -184 187 -221c63 -23 184 -23 228 10c35 27 32 80 32 126v384c0 58 4 94 -27 120c-46 38 -155 30 -188 24z" />
    <glyph glyph-name="oe" unicode="&#x153;" horiz-adv-x="898" 
d="M311 511c50 -11 90 -33 139 -93c83 95 177 113 254 84c99 -38 125 -111 125 -203h-339c0 -75 4 -166 91 -226c43 -28 110 -27 148 -11c44 18 58 30 100 81c-15 -70 -54 -118 -121 -142c-57 -21 -143 -18 -206 29c-15 11 -31 27 -55 56c-81 -88 -151 -108 -228 -93
c-86 17 -144 79 -171 163c-27 82 -18 196 57 281c63 70 136 88 206 74zM215 472c-78 -44 -89 -160 -91 -211c-2 -54 6 -174 83 -222c37 -22 84 -21 115 -4c69 37 86 140 87 188c2 57 5 191 -82 244c-35 21 -84 21 -112 5zM744 337c-1 48 -16 97 -53 127
c-28 22 -78 23 -103 14c-58 -23 -86 -88 -94 -141h250z" />
    <glyph glyph-name="endash" unicode="&#x2013;" horiz-adv-x="735" 
d="M35 288v47h631v-47h-631z" />
    <glyph glyph-name="emdash" unicode="&#x2014;" horiz-adv-x="912" 
d="M39 244v55h807v-55h-807z" />
    <glyph glyph-name="quotedblleft" unicode="&#x201c;" horiz-adv-x="394" 
d="M126 747c12 6 15 0 11 -5c-7 -5 -27 -19 -34 -30c-4 -6 -16 -23 -12 -42c30 -3 50 -11 61 -37c5 -12 5 -30 -7 -45c-10 -14 -28 -20 -48 -18v0c-23 3 -42 18 -49 38c-11 29 -3 68 16 92c25 31 43 38 62 47zM304 747c11 6 14 0 10 -5c-7 -5 -26 -19 -34 -30
c-4 -6 -16 -23 -11 -42c29 -3 49 -11 60 -37c5 -12 5 -30 -6 -45c-11 -14 -29 -20 -49 -18v0c-22 3 -42 18 -49 38c-11 29 -3 68 16 92c25 31 44 38 63 47z" />
    <glyph glyph-name="quotedblright" unicode="&#x201d;" horiz-adv-x="394" 
d="M255 572c-12 -5 -15 0 -11 5c8 6 27 20 34 30c4 7 16 24 12 43c-30 3 -50 10 -61 37c-5 12 -5 30 7 44c10 14 28 21 49 18v0c22 -3 41 -18 48 -38c11 -28 4 -68 -16 -91c-25 -32 -43 -38 -62 -48zM77 572c-11 -5 -14 0 -10 5c7 6 26 20 34 30c4 7 16 24 12 43
c-30 3 -50 10 -61 37c-5 12 -5 30 6 44s29 21 49 18v0c23 -3 42 -18 49 -38c11 -28 3 -68 -16 -91c-25 -32 -43 -38 -63 -48z" />
    <glyph glyph-name="quoteleft" unicode="&#x2018;" horiz-adv-x="205" 
d="M117 747c11 6 15 0 10 -5c-7 -5 -26 -19 -34 -30c-4 -6 -16 -23 -11 -42c29 -3 50 -11 60 -37c6 -12 6 -30 -6 -45c-11 -14 -29 -20 -49 -18v0c-22 3 -41 18 -49 38c-10 29 -3 68 16 92c26 31 44 38 63 47z" />
    <glyph glyph-name="quoteright" unicode="&#x2019;" horiz-adv-x="205" 
d="M68 572c-12 -5 -15 0 -11 5c8 6 27 20 34 30c5 7 16 24 12 43c-30 3 -50 10 -61 37c-5 12 -5 30 7 44c10 14 28 21 49 18v0c22 -3 41 -18 48 -38c11 -28 4 -68 -15 -91c-26 -32 -44 -38 -63 -48z" />
    <glyph glyph-name="divide" unicode="&#xf7;" horiz-adv-x="633" 
d="M41 -14l465 766h63l-464 -766h-64z" />
    <glyph glyph-name="ydieresis" unicode="&#xff;" horiz-adv-x="469" 
d="M-7 501h127c-20 -21 -23 -30 -9 -72l110 -304l116 275c27 65 23 78 3 101h106c-27 -16 -35 -33 -48 -62l-301 -687h-77c43 39 57 62 80 110l77 169s-10 33 -28 83l-125 337c-8 24 -10 34 -31 50zM96 566c-28 0 -49 21 -49 49c0 27 21 48 49 48c27 0 49 -21 49 -48
c0 -28 -22 -49 -49 -49zM303 566c-28 0 -49 21 -49 49c0 27 21 48 49 48c27 0 49 -21 49 -48c0 -28 -22 -49 -49 -49z" />
    <glyph glyph-name="Ydieresis" unicode="&#x178;" horiz-adv-x="542" 
d="M232 63v311l-49 81l-139 219c-22 34 -37 44 -62 62h179c-27 -25 -30 -29 -17 -58c1 -3 17 -28 39 -61l125 -194l103 197c16 32 25 46 32 60c15 32 6 38 -17 56h132c-33 -25 -45 -37 -62 -66l-123 -215l-46 -80v-313c0 -31 3 -32 28 -62h-150c24 29 27 33 27 63zM208 822
l93 94c60 61 85 90 111 81c14 -4 24 -18 25 -31c5 -30 -30 -46 -94 -83l-105 -61h-30z" />
    <glyph glyph-name="fraction" unicode="&#x2044;" horiz-adv-x="542" 
d="M232 63v311l-49 81l-139 219c-22 34 -37 44 -62 62h179c-27 -25 -30 -29 -17 -58c1 -3 17 -28 39 -61l125 -194l103 197c16 32 25 46 32 60c15 32 6 38 -17 56h132c-33 -25 -45 -37 -62 -66l-123 -215l-46 -80v-313c0 -31 3 -32 28 -62h-150c24 29 27 33 27 63zM168 822
c-28 0 -49 21 -49 48c0 28 21 49 49 49c27 0 50 -21 50 -49c0 -27 -23 -48 -50 -48zM375 822c-28 0 -49 21 -49 48c0 28 21 49 49 49c27 0 50 -21 50 -49c0 -27 -23 -48 -50 -48z" />
    <glyph glyph-name="guilsinglleft" unicode="&#x2039;" horiz-adv-x="291" 
d="M226 408c6 7 14 3 3 -13c-38 -61 -83 -120 -104 -146c38 -45 54 -66 104 -152c3 -7 -2 -11 -6 -6c-62 65 -118 114 -178 158c70 54 116 96 181 159z" />
    <glyph glyph-name="guilsinglright" unicode="&#x203a;" horiz-adv-x="289" 
d="M57 395c-10 16 -3 20 4 13c64 -63 111 -105 181 -159c-60 -44 -117 -93 -178 -158c-5 -5 -10 -1 -7 6c50 86 66 107 104 152c-21 26 -65 85 -104 146z" />
    <glyph glyph-name="fi" unicode="&#xfb01;" horiz-adv-x="544" 
d="M140 466v-403c0 -22 1 -33 19 -63h-119c18 30 19 40 19 62v404h-55v35h27h28v27c0 55 -8 160 76 206c42 23 100 22 157 -12v-77c-22 35 -43 65 -81 70c-18 4 -35 -1 -49 -12c-27 -26 -23 -65 -23 -129v-73h150v-35h-149zM410 654c-27 0 -48 21 -48 48c0 26 21 47 48 47
c26 0 48 -21 48 -47c0 -27 -22 -48 -48 -48zM471 0h-119c18 30 20 40 20 62v370c0 34 0 36 -26 57l106 26v-452c0 -22 1 -33 19 -63z" />
    <glyph glyph-name="fl" unicode="&#xfb02;" horiz-adv-x="539" 
d="M468 0h-119c18 30 19 40 19 62v605c0 34 0 36 -25 57l106 25v-686c0 -22 1 -33 19 -63zM143 466v-403c0 -22 1 -33 19 -63h-118c18 30 19 40 19 62v404h-56v35h27h29v27c0 55 -9 160 75 206c42 23 100 22 157 -12v-77c-22 35 -42 65 -81 70c-18 4 -35 -1 -48 -12
c-28 -26 -24 -65 -24 -129v-73h150v-35h-149z" />
    <glyph glyph-name="daggerdbl" unicode="&#x2021;" horiz-adv-x="575" 
d="M324 177h149c23 0 30 3 49 15v-92c-18 13 -21 16 -49 16h-149v-232c0 -27 4 -33 23 -57h-119c21 25 24 29 24 57v232h-150c-28 0 -31 -3 -49 -16v92c19 -12 27 -15 49 -15h150v203h-150c-28 0 -31 -3 -49 -16v92c19 -11 27 -14 49 -14h150v243c0 20 -4 27 -14 51h101
c-12 -25 -15 -31 -15 -51v-243h149c23 0 30 3 49 14v-92c-18 13 -21 16 -49 16h-149v-203z" />
    <glyph glyph-name="periodcentered" unicode="&#xb7;" horiz-adv-x="317" 
d="M83 -103l47 103h33l-27 -69c36 6 77 7 103 -28c15 -19 18 -46 6 -72c-21 -42 -73 -54 -112 -56c-26 0 -50 3 -95 17l13 30c31 -8 85 -22 112 3c10 8 16 20 15 34c-2 10 -9 24 -24 33c-8 3 -16 7 -36 4c-15 -2 -20 -11 -35 1z" />
    <glyph glyph-name="quotesinglbase" unicode="&#x201a;" horiz-adv-x="205" 
d="M58 -86c-11 -5 -14 0 -10 5c7 6 26 19 34 30c4 6 16 23 11 43c-29 3 -49 10 -60 37c-5 11 -5 29 6 44c11 14 29 20 49 18v0c22 -3 42 -18 49 -38c11 -29 3 -68 -16 -91c-25 -32 -44 -38 -63 -48z" />
    <glyph glyph-name="quotedblbase" unicode="&#x201e;" horiz-adv-x="394" 
d="M68 -86c-12 -5 -15 0 -11 5c8 6 27 19 34 30c5 6 16 23 12 43c-30 3 -50 10 -61 37c-5 11 -5 29 7 44c10 14 28 20 49 18v0c22 -3 41 -18 48 -38c11 -29 4 -68 -15 -91c-26 -32 -44 -38 -63 -48zM248 -86c-11 -5 -14 0 -10 5c7 6 26 19 34 30c4 6 16 23 11 43
c-29 3 -49 10 -60 37c-5 11 -5 29 6 44c11 14 29 20 49 18v0c22 -3 42 -18 49 -38c11 -29 3 -68 -16 -91c-25 -32 -43 -38 -63 -48z" />
    <glyph glyph-name="perthousand" unicode="&#x2030;" horiz-adv-x="1034" 
d="M308 380l200 367h61l-221 -372l-209 -380h-58zM387 342c13 10 29 20 49 25v0c46 14 94 3 130 -26c51 -44 64 -120 57 -178c-5 -46 -27 -116 -91 -149c-36 -19 -83 -22 -121 -2c-60 32 -81 88 -86 139c-5 46 3 141 62 191zM450 341c-15 -8 -27 -21 -35 -37
c-23 -44 -25 -185 -4 -229c12 -26 30 -41 50 -45c20 -3 44 4 58 19c40 39 34 185 32 202c-4 32 -15 71 -48 88c-19 10 -39 8 -53 2zM93 718c13 10 29 20 49 25v0c46 14 94 3 130 -26c51 -44 63 -120 57 -178c-5 -46 -28 -116 -91 -149c-36 -20 -83 -23 -121 -3
c-60 32 -81 89 -86 140c-6 46 3 141 62 191zM156 717c-15 -8 -28 -22 -35 -38c-23 -43 -25 -184 -4 -228c11 -26 29 -41 50 -45c20 -4 44 4 58 19c40 39 34 184 32 201c-4 33 -15 71 -48 88c-19 11 -39 9 -53 3zM735 342c12 10 28 20 48 25v0c46 14 94 3 130 -26
c51 -44 64 -120 57 -178c-5 -46 -27 -116 -91 -149c-36 -19 -83 -22 -121 -2c-59 32 -81 88 -86 139c-5 46 3 141 63 191zM797 341c-15 -8 -27 -21 -35 -37c-23 -44 -25 -185 -4 -229c12 -26 30 -41 50 -45c20 -3 44 4 58 19c41 39 34 185 32 202c-4 32 -15 71 -48 88
c-19 10 -39 8 -53 2z" />
    <glyph glyph-name="Acircumflex" unicode="&#xc2;" horiz-adv-x="702" 
d="M36 62l298 689l291 -683c16 -36 26 -43 58 -68h-180c28 24 34 35 24 70c-5 14 -28 69 -31 75l-37 85h-294l-47 -104l-27 -64c-11 -32 -6 -37 19 -62h-117v0c18 18 32 38 43 62zM310 587l-127 -309h254zM305 996h57l126 -174h-34l-121 109l-121 -109h-34z" />
    <glyph glyph-name="Ecircumflex" unicode="&#xca;" horiz-adv-x="569" 
d="M490 0h-441c24 29 27 33 27 63v610c0 30 -3 34 -27 63h412v-77c-24 23 -92 40 -155 40c-61 0 -126 -2 -135 -2v0v-269h162c30 0 60 17 68 30v-96c-25 24 -40 28 -68 28h-162v-339c57 -14 198 -12 218 -10c58 5 81 8 118 69zM223 996h57l127 -174h-34l-121 109l-121 -109
h-34z" />
    <glyph glyph-name="Aacute" unicode="&#xc1;" horiz-adv-x="702" 
d="M33 62l298 689l291 -683c16 -36 26 -43 57 -68h-179c28 24 34 35 23 70c-4 14 -27 69 -30 75l-38 85h-294l-46 -104l-27 -64c-12 -32 -6 -37 19 -62h-118v0c18 18 33 38 44 62zM307 587l-128 -309h255zM265 822l94 94c59 61 85 90 110 81c14 -4 25 -18 26 -31
c4 -30 -31 -46 -95 -83l-105 -61h-30z" />
    <glyph glyph-name="Edieresis" unicode="&#xcb;" horiz-adv-x="569" 
d="M490 0h-441c24 29 27 33 27 63v610c0 30 -3 34 -27 63h412v-77c-24 23 -92 40 -155 40c-61 0 -126 -2 -135 -2v0v-269h162c30 0 60 17 68 30v-96c-25 24 -40 28 -68 28h-162v-339c57 -14 198 -12 218 -10c58 5 81 8 118 69zM130 822c-28 0 -49 21 -49 48
c0 28 21 49 49 49c27 0 49 -21 49 -49c0 -27 -22 -48 -49 -48zM337 822c-28 0 -49 21 -49 48c0 28 21 49 49 49c27 0 49 -21 49 -49c0 -27 -22 -48 -49 -48z" />
    <glyph glyph-name="Egrave" unicode="&#xc8;" horiz-adv-x="569" 
d="M487 0h-441c24 29 27 33 27 63v610c0 30 -3 34 -27 63h412v-77c-24 23 -92 40 -155 40c-61 0 -126 -2 -135 -2v0v-269h162c30 0 60 17 68 30v-96c-25 24 -40 28 -68 28h-162v-339c57 -14 198 -12 217 -10c59 5 82 8 119 69zM244 916l94 -94h-30l-105 61
c-64 37 -99 53 -95 83c1 13 12 27 26 31c25 9 51 -20 110 -81z" />
    <glyph glyph-name="Iacute" unicode="&#xcd;" horiz-adv-x="278" 
d="M79 63v610c0 30 -4 34 -28 63h150c-25 -30 -28 -33 -28 -62v-612c0 -29 3 -32 28 -62h-150c24 29 28 33 28 63zM28 822l93 94c59 61 85 90 110 81c14 -4 25 -18 26 -31c4 -30 -31 -46 -95 -83l-105 -61h-29z" />
    <glyph glyph-name="Icircumflex" unicode="&#xce;" horiz-adv-x="278" 
d="M79 63v610c0 30 -4 34 -28 63h150c-25 -30 -28 -33 -28 -62v-612c0 -29 3 -32 28 -62h-150c24 29 28 33 28 63zM93 996h58l126 -174h-34l-121 109l-121 -109h-34z" />
    <glyph glyph-name="Idieresis" unicode="&#xcf;" horiz-adv-x="278" 
d="M79 63v610c0 30 -4 34 -28 63h150c-25 -30 -28 -33 -28 -62v-612c0 -29 3 -32 28 -62h-150c24 29 28 33 28 63zM24 822c-27 0 -48 21 -48 48c0 28 21 49 48 49c28 0 50 -21 50 -49c0 -27 -22 -48 -50 -48zM231 822c-27 0 -48 21 -48 48c0 28 21 49 48 49
c28 0 50 -21 50 -49c0 -27 -22 -48 -50 -48z" />
    <glyph glyph-name="Igrave" unicode="&#xcc;" horiz-adv-x="278" 
d="M79 63v610c0 30 -4 34 -28 63h150c-25 -30 -28 -33 -28 -62v-612c0 -29 3 -32 28 -62h-150c24 29 28 33 28 63zM123 916l94 -94h-30l-105 61c-64 37 -99 53 -95 83c1 13 12 27 26 31c25 9 51 -20 110 -81z" />
    <glyph glyph-name="Oacute" unicode="&#xd3;" horiz-adv-x="880" 
d="M248 708c40 19 82 33 126 38c114 14 258 -19 361 -139c90 -106 98 -233 70 -334c-37 -128 -132 -226 -277 -271c-110 -34 -252 -14 -365 79c-119 99 -148 210 -135 327c13 124 80 229 220 300v0zM373 703c-98 -15 -173 -72 -216 -183c-41 -105 -31 -279 53 -384
c79 -98 171 -118 255 -104c115 17 171 66 217 181c44 115 40 281 -49 392c-75 91 -188 109 -260 98zM325 822l93 94c60 61 85 90 111 81c13 -4 24 -18 25 -31c4 -30 -31 -46 -94 -83l-105 -61h-30z" />
    <glyph glyph-name="Ocircumflex" unicode="&#xd4;" horiz-adv-x="880" 
d="M248 708c40 19 82 33 126 38c114 14 258 -19 361 -139c90 -106 98 -233 70 -334c-37 -128 -132 -226 -277 -271c-110 -34 -252 -14 -365 79c-119 99 -148 210 -135 327c13 124 80 229 220 300v0zM373 703c-98 -15 -173 -72 -216 -183c-41 -105 -31 -279 53 -384
c79 -98 171 -118 255 -104c115 17 171 66 217 181c44 115 40 281 -49 392c-75 91 -188 109 -260 98zM386 996h58l126 -174h-34l-121 109l-121 -109h-34z" />
    <glyph glyph-name="Ograve" unicode="&#xd2;" horiz-adv-x="880" 
d="M248 708c40 19 82 33 126 38c114 14 258 -19 361 -139c90 -106 98 -233 70 -334c-37 -128 -132 -226 -277 -271c-110 -34 -252 -14 -365 79c-119 99 -148 210 -135 327c13 124 80 229 220 300v0zM373 703c-98 -15 -173 -72 -216 -183c-41 -105 -31 -279 53 -384
c79 -98 171 -118 255 -104c115 17 171 66 217 181c44 115 40 281 -49 392c-75 91 -188 109 -260 98zM398 916l94 -94h-30l-105 61c-64 37 -99 53 -95 83c1 13 12 27 26 31c25 9 51 -20 110 -81z" />
    <glyph glyph-name="Uacute" unicode="&#xda;" horiz-adv-x="712" 
d="M534 736h103c-24 -30 -28 -33 -28 -62v-404c0 -77 -2 -186 -101 -245c-91 -53 -245 -50 -332 -1c-111 64 -107 158 -107 242v407c0 30 -3 34 -28 63h150c-24 -30 -28 -33 -28 -62v-408c0 -78 -7 -155 85 -211c57 -34 179 -28 233 2c87 48 81 147 81 204v412
c0 30 -4 34 -28 63zM257 821l93 94c60 61 85 90 111 81c14 -4 24 -18 25 -31c4 -30 -31 -46 -94 -83l-105 -61h-30z" />
    <glyph glyph-name="Ucircumflex" unicode="&#xdb;" horiz-adv-x="712" 
d="M537 736h103c-24 -30 -27 -33 -27 -62v-404c0 -77 -3 -186 -101 -245c-92 -53 -246 -50 -333 -1c-111 64 -107 158 -107 242v407c0 30 -3 34 -27 63h149c-24 -30 -27 -33 -27 -62v-408c0 -78 -8 -155 85 -211c56 -34 178 -28 232 2c87 48 81 147 81 204v412
c0 30 -3 34 -28 63zM337 996h57l126 -174h-34l-121 109l-121 -109h-34z" />
    <glyph glyph-name="Ugrave" unicode="&#xd9;" horiz-adv-x="712" 
d="M534 736h103c-24 -30 -28 -33 -28 -62v-404c0 -77 -2 -186 -101 -245c-91 -53 -245 -50 -332 -1c-111 64 -107 158 -107 242v407c0 30 -3 34 -28 63h150c-24 -30 -28 -33 -28 -62v-408c0 -78 -7 -155 85 -211c57 -34 179 -28 233 2c87 48 81 147 81 204v412
c0 30 -4 34 -28 63zM332 916l94 -94h-30l-105 61c-64 37 -99 53 -95 83c1 13 12 27 26 31c25 9 51 -20 110 -81z" />
    <glyph glyph-name="dotlessi" unicode="&#x131;" horiz-adv-x="229" 
d="M160 0h-119c18 30 20 40 20 62v370c0 34 0 36 -26 57l106 26v-452c0 -22 1 -33 19 -63z" />
    <glyph glyph-name="circumflex" unicode="&#x2c6;" horiz-adv-x="416" 
d="M169 740h57l126 -174h-34l-121 109l-121 -109h-34z" />
    <glyph glyph-name="tilde" unicode="&#x2dc;" horiz-adv-x="445" 
d="M335 639c8 9 16 23 21 34h28c-11 -47 -30 -90 -81 -102c-64 -15 -90 21 -152 39c-25 7 -42 6 -57 -6c-11 -11 -19 -25 -24 -38h-25c9 49 27 84 77 97c64 19 87 -28 156 -40c19 -3 40 -3 57 16z" />
    <glyph glyph-name="macron" unicode="&#xaf;" horiz-adv-x="425" 
d="M38 566v52h320v-52h-320z" />
    <glyph glyph-name="breve" unicode="&#x2d8;" horiz-adv-x="394" 
d="M101 588c-51 35 -60 87 -60 140h27c9 -41 22 -75 68 -95c30 -13 77 -13 108 4c38 22 48 50 59 91h28c-7 -58 -18 -120 -89 -151c-38 -16 -100 -18 -141 11z" />
    <glyph glyph-name="dotaccent" unicode="&#x2d9;" horiz-adv-x="234" 
d="M45 447c0 0 56 244 59 254c6 29 14 44 33 48c15 4 26 -3 34 -11c19 -23 -20 -93 -31 -116l-81 -175h-14z" />
    <glyph glyph-name="ring" unicode="&#x2da;" horiz-adv-x="334" 
d="M103 809c11 7 22 14 37 17c29 7 65 1 96 -27c34 -31 44 -81 39 -120c-6 -40 -28 -82 -72 -104c-28 -12 -63 -13 -94 5c-41 25 -60 70 -61 109c-2 34 10 87 55 120zM155 813c-58 -9 -65 -91 -63 -128c2 -34 9 -72 41 -93c17 -10 37 -10 51 -4c28 13 39 40 44 69
c8 38 6 106 -21 135c-18 19 -36 23 -52 21z" />
    </font>
</defs>
</svg>
